/* XPM */
static char *be30e7e0a4b94106c627e18747cc0aa5tD2poT6aLx97Q0gG[] = {
/* columns rows colors chars-per-pixel */
"32 32 10 1 ",
"  c black",
". c gray25",
"X c #464074",
"o c #7E7D7D",
"O c #B4B4B4",
"+ c #9C95C2",
"@ c #B8B8D9",
"# c #C1C1C1",
"$ c #D7D7F2",
"% c white",
/* pixels */
" ............... ..............o",
".OOOOOOOOOOOOOO#.OOOOOOOOOOOOOO#",
".OOOOOOOOOOOOOO#.OOOOOOOOOOOOOO#",
".OOOOOOOOOOOOOO#.OOOOOOOOOOOOOO#",
".OOOOOOOOOOOOOO#.OOOOOOOOOOOOOO#",
".OOOOOOOOOOOOOO#.OOOOOOOOOOOOOO#",
".OOOOOOOOOOOOOO#.OOOOOOOOOOOOOO#",
".OOOOOOOOOOOOOO#.OOXXXXOOOOOOOO#",
".OOOOOOOOOOOOOO#.OX@$$@XOOOOOOO#",
".OOOOOOOOOOOOOO#.X@+XX+@XOOOOOO#",
".OOOOOOOOOOOOOO#.X@XOOX@XOOOOOO#",
".OOOOOOOOOOOOOO#.X@XOOX@XOOOOOO#",
".OOOOOOOOOOOOOO#.X+XOOX+XOOOOOO#",
".OOOOOOOOOOOOOO#.X+XOOOOOOOOOOO#",
".OOOOOOOOOOXXXXXXXXXXOOOOOOOOOO#",
"o#########X$$$$$$$$$$X#########%",
" ........X$$@@@XX@@@@+X........o",
".OOOOOOOOX$@@@XXXX@@@+XOOOOOOOO#",
".OOOOOOOOX$@@@@XX@@@@+XOOOOOOOO#",
".OOOOOOOOX$@@@XXXX@@@+XOOOOOOOO#",
".OOOOOOOOX$@@@@@@@@@++XOOOOOOOO#",
".OOOOOOOOOX++++++++++XOOOOOOOOO#",
".OOOOOOOOOOXXXXXXXXXXOOOOOOOOOO#",
".OOOOOOOOOOOOOO#.OOOOOOOOOOOOOO#",
".OOOOOOOOOOOOOO#.OOOOOOOOOOOOOO#",
".OOOOOOOOOOOOOO#.OOOOOOOOOOOOOO#",
".OOOOOOOOOOOOOO#.OOOOOOOOOOOOOO#",
".OOOOOOOOOOOOOO#.OOOOOOOOOOOOOO#",
".OOOOOOOOOOOOOO#.OOOOOOOOOOOOOO#",
".OOOOOOOOOOOOOO#.OOOOOOOOOOOOOO#",
".OOOOOOOOOOOOOO#.OOOOOOOOOOOOOO#",
"o##############%o##############%"
};
