/* XPM */
static char *bd849acfe5bf4c31a2d26bd2a7f8b5e6WJcF5UxTkWw84GCD[] = {
/* columns rows colors chars-per-pixel */
"32 32 10 1 ",
"  c black",
". c gray25",
"X c #464074",
"o c #7E7D7D",
"O c #B4B4B4",
"+ c #9C95C2",
"@ c #B8B8D9",
"# c #C1C1C1",
"$ c #D7D7F2",
"% c white",
/* pixels */
" ............... ..............o",
".OOOOOOOOOOOOOO#.OOOOOOOOOOOOOO#",
".OOOOOOOOOOOOOO#.OOOOOOOOOOOOOO#",
".OOOOOOOOOOOOOO#.OOOOOOOOOOOOOO#",
".OOOOOOOOOOOOOO#.OOOOOOOOOOOOOO#",
".OOOOOOOOOOOOOO#.OOOOOOOOOOOOOO#",
".OOOOOOOOOOOOOO#.OOOOOOOOOOOOOO#",
".OOOOOOOOOOOOOO#.OOOOOOOOOOOOOO#",
".OOOOOOOOOOOOOO#.OOOOOOOOOOOOOO#",
".OOOOOOOOOOOOOXXXXOOOOOOOOOOOOO#",
".OOOOOOOOOOOOX@$$@XOOOOOOOOOOOO#",
".OOOOOOOOOOOX@+XX+@XOOOOOOOOOOO#",
".OOOOOOOOOOOX@X#.X@XOOOOOOOOOOO#",
".OOOOOOOOOOOX+X#.X+XOOOOOOOOOOO#",
".OOOOOOOOOOOX+X#.X+XOOOOOOOOOOO#",
"o##########XXXXXXXXXX##########%",
" .........X$$$$$$$$$$X.........o",
".OOOOOOOOX$$@@@XX@@@@+XOOOOOOOO#",
".OOOOOOOOX$@@@XXXX@@@+XOOOOOOOO#",
".OOOOOOOOX$@@@@XX@@@@+XOOOOOOOO#",
".OOOOOOOOX$@@@XXXX@@@+XOOOOOOOO#",
".OOOOOOOOX$@@@@@@@@@++XOOOOOOOO#",
".OOOOOOOOOX++++++++++XOOOOOOOOO#",
".OOOOOOOOOOXXXXXXXXXXOOOOOOOOOO#",
".OOOOOOOOOOOOOO#.OOOOOOOOOOOOOO#",
".OOOOOOOOOOOOOO#.OOOOOOOOOOOOOO#",
".OOOOOOOOOOOOOO#.OOOOOOOOOOOOOO#",
".OOOOOOOOOOOOOO#.OOOOOOOOOOOOOO#",
".OOOOOOOOOOOOOO#.OOOOOOOOOOOOOO#",
".OOOOOOOOOOOOOO#.OOOOOOOOOOOOOO#",
".OOOOOOOOOOOOOO#.OOOOOOOOOOOOOO#",
"o##############%o##############%"
};
