/* XPM */
static char *result[] = {
/* columns rows colors chars-per-pixel */
"32 32 6 1 ",
"  c black",
". c gray25",
"X c #7E7D7D",
"o c #B4B4B4",
"O c #C1C1C1",
"+ c white",
/* pixels */
" ..............................X",
".ooooooooooooooooooooooooooooooO",
".ooooooooooooooooooooooooooooooO",
".ooooooooooooooooooooooooooooooO",
".ooooooooooooooooooooooooooooooO",
".ooooooooooooooooooooooooooooooO",
".ooooooooooooooooooooooooooooooO",
".ooooooooooooooooooooooooooooooO",
".ooooooo  oooooooooooo  oooooooO",
".ooooooo  oooooooooooo  oooooooO",
".ooooooooooooooooooooooooooooooO",
".ooooooooooooooooooooooooooooooO",
".ooooooooooooooooooooooooooooooO",
".ooooooooooooooooooooooooooooooO",
".ooooooooooooooooooooooooooooooO",
".oooooooooooooo  ooooooooooooooO",
".oooooooooooooo  ooooooooooooooO",
".ooooooooooooooooooooooooooooooO",
".ooooooooooooooooooooooooooooooO",
".ooooooooooooooooooooooooooooooO",
".ooooooooooooooooooooooooooooooO",
".ooooooooooooooooooooooooooooooO",
".ooooooo  oooooooooooo  oooooooO",
".ooooooo  oooooooooooo  oooooooO",
".ooooooooooooooooooooooooooooooO",
".ooooooooooooooooooooooooooooooO",
".ooooooooooooooooooooooooooooooO",
".ooooooooooooooooooooooooooooooO",
".ooooooooooooooooooooooooooooooO",
".ooooooooooooooooooooooooooooooO",
".ooooooooooooooooooooooooooooooO",
"XOOOOOOOOOOOOOOOOOOOOOOOOOOOOOO+"
};
