/* XPM */
static char *result[] = {
/* columns rows colors chars-per-pixel */
"32 32 10 1 ",
"  c black",
". c gray25",
"X c #444D5C",
"o c #4A777E",
"O c #7E7D7D",
"+ c #B4B4B4",
"@ c #95D7E1",
"# c #C1C1C1",
"$ c #CBEAEE",
"% c white",
/* pixels */
" ..............................O",
".++++++++++++++++++++++++++++++#",
".++++++++++++++++++++++++++++++#",
".++++++++++++++++++++++++++++++#",
".+++++++@$++++++++++++@$+++++++#",
".+++++++@@++++++++++++@@+++++++#",
".+++++++oo++++++++++++oo+++++++#",
".+++++++oo++++++++++++oo+++++++#",
".+++++++XX++++++++++++XX+++++++#",
".+++++++XX++++++++++++XX+++++++#",
".++++++++++++++++++++++++++++++#",
".++++++++++++++@$++++++++++++++#",
".++++++++++++++@@++++++++++++++#",
".++++++++++++++oo++++++++++++++#",
".++++++++++++++oo++++++++++++++#",
".++++++++++++++XX++++++++++++++#",
".++++++++++++++XX++++++++++++++#",
".++++++++++++++++++++++++++++++#",
".+++++++@$++++++++++++@$+++++++#",
".+++++++@@++++++++++++@@+++++++#",
".+++++++oo++++++++++++oo+++++++#",
".+++++++oo++++++++++++oo+++++++#",
".+++++++XX++++++++++++XX+++++++#",
".+++++++XX++++++++++++XX+++++++#",
".++++++++++++++++++++++++++++++#",
".++++++++++++++++++++++++++++++#",
".++++++++++++++++++++++++++++++#",
".++++++++++++++++++++++++++++++#",
".++++++++++++++++++++++++++++++#",
".++++++++++++++++++++++++++++++#",
".++++++++++++++++++++++++++++++#",
"O##############################%"
};
