/* XPM */
static char *e320cbc15f494d7ad8d32a726568b35e5mufSwxlMRlDhqVv[] = {
/* columns rows colors chars-per-pixel */
"32 32 9 1 ",
"  c black",
". c #2F2F2F",
"X c #434343",
"o c gray31",
"O c #525151",
"+ c #5A5959",
"@ c #6B6A6A",
"# c #727272",
"$ c #838383",
/* pixels */
"                                ",
" ..XOOOOOOOOOOOOOOOOOOOOOOOO@@@ ",
" .XOOOOOOOOOOOOOOOOOOOOO@@@@@@@ ",
" XOOOOOOOOOOOOOOOOOOO@@@@@@@@@@ ",
" OOOOOOOOOOOOOOOOO@@@@@@@@@@@@@ ",
" OOOOOOOOOOOOOOOO@@@@@@@@@@@@$$ ",
" OOOOOOOOOOOOOOO@@@@@@@@@@@@@$$ ",
" Oooooooooooooo@@@@@@@@@@@@@@## ",
"                      @@@@@@### ",
" ..OOOOOOOOOOOOOO@@@@           ",
" .OOOOOOOOOO@@@@@@@@@  ..+ ..+  ",
" OOOOOOOO@@@@@@@@@@@@  .+$ .+$  ",
" oooooo@@@@@@@@@@@@@#           ",
" oooo@@@@@@@@@@@@@@## + ..+ ..+ ",
"                      $ .+$ .+$ ",
" ..OOOOOOOOOOOOOO@@@@           ",
" .OOOOOOOOOO@@@@@@@@@ .+$ .+$ . ",
" OOOOOOOO@@@@@@@@@@@@           ",
" oooooo@@@@@@@@@@@@@# $ .+$ .+$ ",
" oooo@@@@@@@@@@@@@@##           ",
"                      .+ ..+ .. ",
" ..OOOOOOOOOOOOOO@@@@ +$ .+$ .+ ",
" .OOOOOOOOOO@@@@@@@@@           ",
" oooooooo@@@@@@@@@@@#  .+$ .+$  ",
" oooooo@@@@@@@@@@@@##           ",
"                      + ..+ ..+ ",
" ..OOOOOOOOOOOOOO@@@@ $ .+$ .+$ ",
" .OOOOOOOOOO@@@@@@@@@           ",
" OOOOOOOO@@@@@@@@@@@@ .+$ .+$ . ",
" oooooo@@@@@@@@@@@@@#           ",
" oooo@@@@@@@@@@@@@@## $ .+$ .+$ ",
"                                "
};
