/* XPM */
static char *cb1a8521f44f44cee483c5fab0b5acdc026DtJnTsi3q6iqU[] = {
/* columns rows colors chars-per-pixel */
"32 32 9 1 ",
"  c black",
". c #2F2F2F",
"X c #434343",
"o c gray31",
"O c #525151",
"+ c #5A5959",
"@ c #6B6A6A",
"# c #727272",
"$ c #838383",
/* pixels */
"                                ",
" ..XOOOOOOOOOOOOOOOOOOOOOOOO@@@ ",
" .XOOOOOOOOOOOOOOOOOOOOO@@@@@@@ ",
" XOOOOOOOOOOOOOOOOOOO@@@@@@@@@@ ",
" OOOOOOOOOOOOOOOOOO@@@@@@@@@@@@ ",
" OOOOOOOOOOOOOOOOO@@@@@@@@@@@$$ ",
" OOOOOOOOOOOOOOO@@@@@@@@@@@@@$$ ",
" Ooooooooooooooo@@@@@@@@@@@@@## ",
" ..ooooooo                      ",
"           ..OOOOOOOOOOOOOO@@@@ ",
" + ..+ ..+ .OOOOOOOOOO@@@@@@@@@ ",
" $ .+$ .+$ OOOOOOOO@@@@@@@@@@@@ ",
"           oooooo@@@@@@@@@@@@@# ",
" .+ ..+ .. oooo@@@@@@@@@@@@@@## ",
" .$ .+$ .+                      ",
"           ..OOOOOOOOOOOOOO@@@@ ",
"  .+$ .+$  .OOOOOOOOOO@@@@@@@@@ ",
"           OOOOOOOO@@@@@@@@@@@@ ",
" +$ .+$ .+ oooooo@@@@@@@@@@@@@# ",
"           oooo@@@@@@@@@@@@@@## ",
" ..+ ..+ .                      ",
" .+$ .+$ . ..OOOOOOOOOOOOOO@@@@ ",
"           .OOOOOOOOOO@@@@@@@@@ ",
" $ .+$ .+$ oooooooo@@@@@@@@@@@# ",
"           oooooo@@@@@@@@@@@@## ",
" .+ ..+ ..                      ",
" +$ .+$ .+ ..OOOOOOOOOOOOOO@@@@ ",
"           .OOOOOOOOOO@@@@@@@@@ ",
"  .+$ .+$  OOOOOOOO@@@@@@@@@@@@ ",
"           oooooo@@@@@@@@@@@@@# ",
" +$ .+$ .+ oooo@@@@@@@@@@@@@@## ",
"                                "
};
