/* XPM */
static char *result[] = {
/* columns rows colors chars-per-pixel */
"32 32 6 1 ",
"  c black",
". c gray25",
"X c #7E7D7D",
"o c #B4B4B4",
"O c #C1C1C1",
"+ c white",
/* pixels */
" ............... ..............X",
".ooooooooooooooO.ooooooooooooooO",
".ooooooooooooooO.ooooooooooooooO",
".ooooooooooooooO.ooooooooooooooO",
".ooooooooooooooO.ooooooooooooooO",
".ooooooooooooooO.ooooooooooooooO",
".ooooooooooooooO.ooooooooooooooO",
".ooooooooooooooO.ooooooooooooooO",
".ooooooooooooooO.ooooooooooooooO",
".ooooooooooooooO.ooooooooooooooO",
".ooooooooooooooO.ooooooooooooooO",
".ooooooooooooooO.ooooooooooooooO",
".ooooooooooooooO.ooooooooooooooO",
".ooooooooooooooO.ooooooooooooooO",
".ooooooooooooooO.ooooooooooooooO",
"XOOOOOOOOOOOOOO+XOOOOOOOOOOOOOO+",
" ..............X ..............X",
".ooooooooooooooO.ooooooooooooooO",
".ooooooooooooooO.ooooooooooooooO",
".ooooooooooooooO.ooooooooooooooO",
".ooooooooooooooO.ooooooooooooooO",
".ooooooooooooooO.ooooooooooooooO",
".ooooooooooooooO.ooooooooooooooO",
".ooooooooooooooO.ooooooooooooooO",
".ooooooooooooooO.ooooooooooooooO",
".ooooooooooooooO.ooooooooooooooO",
".ooooooooooooooO.ooooooooooooooO",
".ooooooooooooooO.ooooooooooooooO",
".ooooooooooooooO.ooooooooooooooO",
".ooooooooooooooO.ooooooooooooooO",
".ooooooooooooooO.ooooooooooooooO",
"XOOOOOOOOOOOOOO+XOOOOOOOOOOOOOO+"
};
