/* XPM */
static char *_c4ef09de556460c8d3c7ca935345177GJg5AYuuunL6qsLG[] = {
/* columns rows colors chars-per-pixel */
"32 32 9 1 ",
"  c black",
". c #2F2F2F",
"X c #434343",
"o c gray31",
"O c #525151",
"+ c #5A5959",
"@ c #6B6A6A",
"# c #727272",
"$ c #838383",
/* pixels */
"                                ",
" ..XOOOOOOOOOOOOOOOOOOOOOOOO@@@ ",
" .XOOOOOOOOOOOOOOOOOOOOO@@@@@@@ ",
" XOOOOOOOOOOOOOOOOOOO@@@@@@@@@@ ",
" OOOOOOOOOOOOOOOOOO@@@@@@@@@@@@ ",
" OOOOOOOOOOOOOOOOO@@@@@@@@@@@$$ ",
" OOOOOOOOOOOOOOO@@@@@@@@@@@@@$$ ",
" Ooooooooooooooo@@@@@@@@@@@@@## ",
" ..oooooooooooo@@@@@@@@@@@@@### ",
"                                ",
" + ..+ ..+ ..+ ..+ ..+ ..+ ..+  ",
" $ .+$ .+$ .+$ .+$ .+$ .+$ .+$  ",
"                                ",
" .+ ..+ ..+ ..+ ..+ ..+ ..+ ..+ ",
" .$ .+$ .+$ .+$ .+$ .+$ .+$ .+$ ",
"                                ",
"  .+$ .+$ .+$ .+$ .+$ .+$ .+$ . ",
"                                ",
" +$ .+$ .+$ .+$ .+$ .+$ .+$ .+$ ",
"                                ",
" ..+ ..+ ..+ ..+ ..+ ..+ ..+ .. ",
" .+$ .+$ .+$ .+$ .+$ .+$ .+$ .+ ",
"                                ",
" $ .+$ .+$ .+$ .+$ .+$ .+$ .+$  ",
"                                ",
" .+ ..+ ..+ ..+ ..+ ..+ ..+ ..+ ",
" +$ .+$ .+$ .+$ .+$ .+$ .+$ .+$ ",
"                                ",
"  .+$ .+$ .+$ .+$ .+$ .+$ .+$ . ",
"                                ",
" +$ .+$ .+$ .+$ .+$ .+$ .+$ .+$ ",
"                                "
};
