/* XPM */
static char *result[] = {
/* columns rows colors chars-per-pixel */
"32 32 132 2 ",
"   c black",
".  c #0E0D21",
"X  c #161324",
"o  c #191627",
"O  c #15152A",
"+  c #1C1A2D",
"@  c #241C29",
"#  c #1F233B",
"$  c #22253C",
"%  c #282638",
"&  c #28283D",
"*  c #3D2F34",
"=  c #3B293E",
"-  c #3F3136",
";  c #5A2A3D",
":  c #473637",
">  c #43353C",
",  c #493738",
"<  c #4B3938",
"1  c #6A293B",
"2  c #182A47",
"3  c #13375B",
"4  c #222740",
"5  c #252B44",
"6  c #2B2C42",
"7  c #392A41",
"8  c #3F3746",
"9  c #393C5E",
"0  c #163F65",
"q  c #473943",
"w  c #7F2E42",
"e  c #793B56",
"r  c #3E4154",
"t  c #16446C",
"y  c gray25",
"u  c #544349",
"i  c #674D43",
"p  c #694E43",
"a  c #6D5145",
"s  c #725446",
"d  c #775449",
"f  c #665A5E",
"g  c #454B61",
"h  c #495067",
"j  c #4A5169",
"k  c #7E7D7D",
"l  c #882938",
"z  c #9B2835",
"x  c #9D2835",
"c  c #A12733",
"v  c #A12835",
"b  c #AF2B38",
"n  c #B12732",
"m  c #B02D39",
"M  c #D32F38",
"N  c #D3343E",
"B  c #E63B44",
"V  c #965C49",
"C  c #8D674F",
"Z  c #916B54",
"A  c #A66E54",
"S  c #934A63",
"D  c #9E766D",
"F  c #E84A52",
"G  c #C97F57",
"H  c #CE5E6A",
"J  c #EB636A",
"K  c #EC6A72",
"L  c #B2825F",
"P  c #B58460",
"I  c #B88661",
"U  c #BD8963",
"Y  c #B9967E",
"T  c #C28D64",
"R  c #C69066",
"E  c #CB9267",
"W  c #D79C6C",
"Q  c #DB9C6B",
"!  c #C59178",
"~  c #DCA06F",
"^  c #E4A46E",
"/  c #E5A671",
"(  c #E6A871",
")  c #EBAB75",
"_  c #05609B",
"`  c #28659F",
"'  c #446789",
"]  c #017AC2",
"[  c #3CB4F6",
"{  c #5890C5",
"}  c #99A3B6",
"|  c #A2A6B4",
" . c #B4B4B4",
".. c #BEBABE",
"X. c #F39096",
"o. c #DBAE8A",
"O. c #DEB18C",
"+. c #E2B38E",
"@. c #EBBC95",
"#. c #C4BBBE",
"$. c #E0BFA5",
"%. c #ECC098",
"&. c #A2B3C7",
"*. c #C5BBCE",
"=. c #B7D7EC",
"-. c #C1C1C1",
";. c #C9C2C2",
":. c #C9C6CA",
">. c #C2C8D6",
",. c #C1CCDD",
"<. c #CCD1DC",
"1. c #FAC7CB",
"2. c #FAD2D6",
"3. c #FFDEDF",
"4. c #EBE2DD",
"5. c #F9EADD",
"6. c #C4D0E1",
"7. c #CBD6E5",
"8. c #CFD9E7",
"9. c #D3DCE8",
"0. c #D8DFEA",
"q. c #FCDEE0",
"w. c #C2EAFE",
"e. c #F9EEE1",
"r. c #F9F0E4",
"t. c #E0E6F0",
"y. c #E5EBF3",
"u. c #EDF1F7",
"i. c #F0F3F7",
"p. c #F1F4F9",
"a. c #FFF7F8",
"s. c #FEFEFE",
/* pixels */
"  y y y y y s.s.q r y y y y y y   y y y y y y y y y y y y y y L ",
"y  . . . . .s.s. . . . . . . .-.y  . . . . . . . . . . . . .&.&.",
"y  . . . . .s.p.0.} h 5 % 5 5 5 5 5 5 5 5 5  . . . . . . . . .:.",
"y  . . . . .s.p.9.} h 4 $ 5 5 5 5 6 5 5 5 5  . . . . . . . . .-.",
"y  . . . . .s.p.9.} j 4 5 5 5 5 5 5 5 5 6 5 5 5  . . . . . . .-.",
"y  . . . . .s.p.9.} j 4 5 5 5 5 5 5 5 5 5 5 & $  . . . . . . .-.",
"y  . . . . .s.p.9.} j 4 5 5 5 5 5 5 5 5 5 5 # +  . . . . . . .-.",
"y  . . . . .s.p.9.} g # 5 5 5 5 5 5 5 5 5 # o X  . . . . . . .-.",
"y  . . . . .s.p.9.} r O # 5 5 5 5 5 5 $ + o X o  . . . . . . .-.",
"y  . . . . .s.p.9.| f * % # $ # 4 # # & - * @ X  . . . . . . .-.",
"y  . . . . .s.p.8...Y C * X o o + O O - Z Z - X  . . . . . . .-.",
"y  . . . . .s.p.8.;.+.T s : : < : : < s R I < .  . . . . . . .-.",
"y  . . . . .s.u.8.;.+.~ T L L L P L P R ~ P < X  . . . . . . .-.",
"y  . . . . .s.u.8.;.O.~ T T ~ ) ) ~ R U ~ L > .  . . . . . . .-.",
"y  . . . . .p.u.8.;.O.L p p L ) ) U p a R P : .  . . . . . . .-.",
"D -.-.-.-.-.s.u.8.;.O.U p i T ) ) U p p U U a : -.-.-.-.-.-.-.s.",
"  y y y y q s.i.8.;.o.Q U U W / ( W U U W W T P r y y y y y y k ",
"r  . . . . .s.i.8.#.o.^ / / / / ( / / ( / / ) )  . . . . . . .#.",
"y  . . . . .s.i.8.;.o.^ ^ / ^ ^ ~ / / / / /  . . . . . . . . .-.",
"y  . . . . .s.i.8.:.$.@.@.@.@.@.@.@.%.@.@.@. . . . . . . . . .-.",
"y  . . . . .s.i.8.<.4.5.5.5.5.5.5.e.e.e.e.r. . . . . . . . . .-.",
"y  . . . . .u.y.7.7.y.a.s.s.s.s.s.a.3.2.2.1. . . . . . . . . .-.",
"y  . . .,.,.7.7.6.6.8.t.a.s.s.s.s.q.X.K K J F B B B  . . . . .-.",
"y  . . .,.>.:.#.#. .} &.=.w.w.w.w.*.H M N N N N N N  . . . . .-.",
"y  . . . . .o.~ ! D f ' { [ [ [ [ { S n n b m m m m  . . . . .-.",
"y  . . . . .( ~ G V , 3 _ ] ] ] ] ` e c x x x x z z  . . . . .-.",
"y  . . . . .( Q T V y 2 3 3 0 t t 9 w c v x x x z x  . . . . .-.",
"y  . . . . .( E A d 8 # O + $ $ 4 = 1 l z v x x x x  . . . . .-.",
"r  . . . . . . .u r & & # & $ $ 5 & = ; l v v x  . . . . . . .-.",
"y  . . . . . . .# 5 5 5 5 5 5 5 5 5 5 7 1 l z x  . . . . . . .-.",
"y  . . . . . . . . .5 5 5 5 5 5 5 5 5 5 7 >  . . . . . . . . .-.",
"k #.-.-.-.-.-.-.-.-.5 5 5 5 5 5 5 5 5 5 $ 5 -.-.-.-.-.-.-.-.-.s."
};
