/* XPM */
static char *result[] = {
/* columns rows colors chars-per-pixel */
"32 32 133 2 ",
"   c black",
".  c #0E0D21",
"X  c #120F23",
"o  c #161324",
"O  c #191627",
"+  c #15152A",
"@  c #1E1A2D",
"#  c #1C1D33",
"$  c #241C29",
"%  c #1F233B",
"&  c #23253D",
"*  c #282638",
"=  c #2A283B",
"-  c #3F3033",
";  c #3F3238",
":  c #5B2A3E",
">  c #473637",
",  c #493737",
"<  c #4B3938",
"1  c #6A293C",
"2  c #182C4A",
"3  c #14375C",
"4  c #222740",
"5  c #262B44",
"6  c #2B2B44",
"7  c #3B2A42",
"8  c #3A3C5F",
"9  c #173F66",
"0  c #403646",
"q  c #793B56",
"w  c #3E4154",
"e  c #18446E",
"r  c gray25",
"t  c #674D43",
"y  c #694E43",
"u  c #6D5145",
"i  c #725446",
"p  c #755648",
"a  c #665A5E",
"s  c #454B61",
"d  c #4A5169",
"f  c #545A71",
"g  c #736066",
"h  c #7E7D7D",
"j  c #8A2938",
"k  c #972936",
"l  c #9D2835",
"z  c #A12733",
"x  c #A12835",
"c  c #AF2C39",
"v  c #B22935",
"b  c #B02D39",
"n  c #D4313C",
"m  c #802E42",
"M  c #D33640",
"N  c #E63B44",
"B  c #8D674F",
"V  c #8F6952",
"C  c #916B54",
"Z  c #A66C54",
"A  c #934C65",
"S  c #E64348",
"D  c #E5524D",
"F  c #C67C55",
"G  c #CF606E",
"H  c #EC7A72",
"J  c #B2825F",
"K  c #B58460",
"L  c #BB8567",
"P  c #BD8A63",
"I  c #B9967E",
"U  c #C28D64",
"Y  c #C79167",
"T  c #CF9268",
"R  c #DB9766",
"E  c #D79C6D",
"W  c #DA9C6B",
"Q  c #C18D75",
"!  c #E58765",
"~  c #E58C67",
"^  c #E79872",
"/  c #DCA06F",
"(  c #E4A46F",
")  c #E4A671",
"_  c #E6A974",
"`  c #EAAB75",
"'  c #065F9B",
"]  c #29659F",
"[  c #527393",
"{  c #017AC3",
"}  c #3CB4F7",
"|  c #5992C7",
" . c #439ED6",
".. c #959EB0",
"X. c #99A2B6",
"o. c #A2A9B9",
"O. c #B4B4B4",
"+. c #BEBABE",
"@. c #D2A383",
"#. c #DFAC83",
"$. c #DCAF8B",
"%. c #DEB18C",
"&. c #C7A093",
"*. c #D6B499",
"=. c #E7B28C",
"-. c #EFBD94",
";. c #CFBAAD",
":. c #E8C5AA",
">. c #F8C8BB",
",. c #B3BED0",
"<. c #C2BEC7",
"1. c #C1C1C1",
"2. c #C9C2C2",
"3. c #C5C4CB",
"4. c #C2C8D6",
"5. c #C1CBDC",
"6. c #D9D5D6",
"7. c #E6DCDB",
"8. c #FFECDD",
"9. c #C4D0E2",
"0. c #CBD6E4",
"q. c #CFD9E7",
"w. c #CFD9E8",
"e. c #D3DCE8",
"r. c #C5E4F7",
"t. c #C1EBFF",
"y. c #FFEEE0",
"u. c #FEF1E4",
"i. c #E4EBF3",
"p. c #EDF1F7",
"a. c #F0F3F7",
"s. c #F1F4F9",
"d. c #FEFEFE",
/* pixels */
"  r r r r r d.d.w r r r r r r r   r r r r r r r r r r r r r r h ",
"r O.O.O.O.O.d.d.O.O.O.O.O.O.O.1.r O.O.O.O.O.O.O.O.O.O.O.O.O.O.1.",
"r O.O.O.O.O.d.s.e.5.O.O.O.O.O.1.r O.O.O.O.O.O.O.O.O.O.O.O.O.O.1.",
"r O.O.O.O.O.d.a.e.,.O.O.O.O.O.1.r O.O.O.O.O.O.O.O.O.O.O.O.O.O.1.",
"r O.O.O.O.O.d.s.e.o.f % & 5 5 5 = 5 5 5 5 5 O.O.O.O.O.O.O.O.O.1.",
"r O.O.O.O.O.d.s.e.X.d 5 5 5 5 5 5 5 5 5 5 5 O.O.O.O.O.O.O.O.O.1.",
"r O.O.O.O.O.d.s.e.X.d % 5 5 5 5 5 5 5 5 5 5 5 5 O.O.O.O.O.O.O.1.",
"r O.O.O.O.O.d.s.e.X.d 5 & 5 5 5 5 5 5 5 5 5 & & O.O.O.O.O.O.O.1.",
"r O.O.O.O.O.d.s.e.X.d 5 5 5 5 5 5 5 5 5 5 & # @ O.O.O.O.O.O.O.1.",
"r O.O.O.O.O.d.s.e.X.s % 4 5 5 5 5 5 5 5 % % O o O.O.O.O.O.O.O.1.",
"r O.O.O.O.O.d.s.e...w + & 5 5 5 5 5 5 & # O o O O.O.O.O.O.O.O.1.",
"r O.O.O.O.O.d.s.e.o.a - * % % & % % % = ; - $ o O.O.O.O.O.O.O.1.",
"r O.O.O.O.O.d.s.q.+.I B - + + + + + + ; C V - o O.O.O.O.O.O.O.1.",
"r O.O.O.O.O.d.a.e.2.=.U i > > < < , > p Y P < X O.O.O.O.O.O.O.1.",
"r O.O.O.O.O.d.a.q.2.$.W U J J J J J J Y / J , o O.O.O.O.O.O.O.1.",
"h 1.1.1.1.1.d.s.q.2.$.E P U / ` ` / Y P / J > . 1.1.1.1.1.1.1.d.",
"  r r r r 0 d.a.e.2.$.P y y P ` ` P u u U K > . w r r r r r r h ",
"r O.O.O.O.O.d.a.q.2.%.P y t P ` ` P t u P U i > O.O.O.O.O.O.O.1.",
"r O.O.O.O.O.d.a.q.<.$.E P P E _ _ E P P E / P K O.O.O.O.O.O.O.1.",
"r O.O.O.O.O.p.i.w.2.*.#._ ( ( ) / _ _ _ _ _ ` ` O.O.O.O.O.O.O.1.",
"r O.O.O.5.9.0.0.9.4.3.;.#.^ ( ( ( ( _ ` _ _ O.O.O.O.O.O.O.O.O.1.",
"r O.O.O.5.4.3.<.+.<.0.6.:.-.-.-.-.=.^ ~ ~ ! O.O.O.O.O.O.O.O.O.1.",
"r O.O.O.O.O.$.@.Q &.7.s.y.y.8.y.u.>.H D D D S N N N O.O.O.O.O.1.",
"r O.O.O.O.O.) R F L ;.0.r.t.t.t.t.3.G n n M M M n n O.O.O.O.O.1.",
"r O.O.O.O.O._ R F Z g [  .} } } } | A v v c c b b b O.O.O.O.O.1.",
"r O.O.O.O.O.` T Z B 7 3 ' { { { { ] q z l l l l l k O.O.O.O.O.1.",
"r O.O.O.O.O.O.O.0 0 6 5 2 3 9 9 e 8 m x x l l l l l O.O.O.O.O.1.",
"r O.O.O.O.O.O.O.5 5 5 4 @ @ & 6 4 7 1 j l l x l l l O.O.O.O.O.1.",
"r O.O.O.O.O.O.O.5 5 5 5 & 4 6 5 6 6 7 : j x l l O.O.O.O.O.O.O.1.",
"r O.O.O.O.O.O.O.5 5 5 5 6 5 5 6 5 5 5 7 1 j k x O.O.O.O.O.O.O.1.",
"r O.O.O.O.O.O.O.O.O.5 5 5 5 5 5 5 5 5 6 7 > O.O.O.O.O.O.O.O.O.1.",
"h 1.1.1.1.1.1.1.<.<.6 6 5 5 5 5 5 5 5 5 5 5 1.1.1.1.1.1.1.1.1.d."
};
