/* XPM */
static char *result[] = {
/* columns rows colors chars-per-pixel */
"32 32 135 2 ",
"   c black",
".  c #0E0D21",
"X  c #161324",
"o  c #191627",
"O  c #15152A",
"+  c #1C1A2D",
"@  c #241C29",
"#  c #1F233B",
"$  c #22253C",
"%  c #282638",
"&  c #28283D",
"*  c #3D2F34",
"=  c #3B293E",
"-  c #3F3136",
";  c #5A2A3D",
":  c #473637",
">  c #493737",
",  c #43353C",
"<  c #493738",
"1  c #4B3938",
"2  c #6A293B",
"3  c #182A47",
"4  c #13375B",
"5  c #222740",
"6  c #252B44",
"7  c #2B2C42",
"8  c #392A41",
"9  c #3F3746",
"0  c #393C5E",
"q  c #163F65",
"w  c #473943",
"e  c #7F2E42",
"r  c #793B56",
"t  c #3E4154",
"y  c #16446C",
"u  c gray25",
"i  c #544349",
"p  c #674D43",
"a  c #694E43",
"s  c #6D5145",
"d  c #725446",
"f  c #775449",
"g  c #665A5E",
"h  c #454B61",
"j  c #4A5169",
"k  c #545A71",
"l  c #655C68",
"z  c #7E7D7D",
"x  c #8A2937",
"c  c #882938",
"v  c #9B2835",
"b  c #9D2835",
"n  c #A12733",
"m  c #A12835",
"M  c #AF2C39",
"N  c #B22935",
"B  c #B02D39",
"V  c #D4313C",
"C  c #D33640",
"Z  c #E63B44",
"A  c #965C49",
"S  c #8D674F",
"D  c #916B54",
"F  c #A66E54",
"G  c #934C65",
"H  c #9E766D",
"J  c #E64348",
"K  c #E5524D",
"L  c #C97F57",
"P  c #CF606E",
"I  c #EC7A72",
"U  c #B2825F",
"Y  c #B58460",
"T  c #BD8963",
"R  c #B9967E",
"E  c #C28D64",
"W  c #C69066",
"Q  c #CB9267",
"!  c #D79C6C",
"~  c #DB9C6B",
"^  c #C59078",
"/  c #E58765",
"(  c #E58C67",
")  c #E79872",
"_  c #DCA06F",
"`  c #E5A56E",
"'  c #E5A671",
"]  c #E8A770",
"[  c #E5A973",
"{  c #EAAB75",
"}  c #05609B",
"|  c #28659F",
" . c #0076BD",
".. c #44688B",
"X. c #017AC2",
"o. c #3CB4F7",
"O. c #3CB6F9",
"+. c #5992C7",
"@. c #959EB0",
"#. c #99A2B6",
"$. c #A1A7B8",
"%. c #B4B4B4",
"&. c #BAB5BC",
"*. c #D4A585",
"=. c #DBAE8B",
"-. c #DEB18C",
";. c #D9B292",
":. c #E2B38E",
">. c #ECB189",
",. c #EEBD94",
"<. c #C4BBBE",
"1. c #F8C8BB",
"2. c #A3B5CB",
"3. c #B3BED0",
"4. c #C6BDD1",
"5. c #B8D9EF",
"6. c #C1C1C1",
"7. c #C9C2C2",
"8. c #C7C6CB",
"9. c #D9CFCB",
"0. c #C2C8D6",
"q. c #C1CBDC",
"w. c #F3E3D7",
"e. c #FFEDDE",
"r. c #CAD5E5",
"t. c #CBD6E6",
"y. c #CFD9E7",
"u. c #D2DAE6",
"i. c #D3DCE8",
"p. c #C2ECFF",
"a. c #FFEEE0",
"s. c #E4EAF3",
"d. c #F0F3F7",
"f. c #F1F4F9",
"g. c #FEFEFE",
/* pixels */
"  u u u u u g.g.w - t u u u u u   u u u t u u u u u u u u u u z ",
"u %.%.%.%.%.g.g.%.%.%.%.%.%.%.6.u %.%.%.%.%.%.%.%.%.%.%.%.%.%.6.",
"u %.%.%.%.%.g.f.u.q.%.%.%.%.%.6.u %.%.%.%.%.%.%.%.%.%.%.%.%.%.6.",
"u %.%.%.%.%.g.d.u.3.%.%.%.%.%.6.u %.%.%.%.%.%.%.%.%.%.%.%.%.%.6.",
"u %.%.%.%.%.g.d.i.2.k $ 6 6 6 6 6 6 6 6 6 6 %.%.%.%.%.%.%.%.%.6.",
"u %.%.%.%.%.g.f.i.#.h 5 6 7 6 6 6 6 6 6 6 6 %.%.%.%.%.%.%.%.%.6.",
"u %.%.%.%.%.g.f.i.#.j 5 5 6 6 6 6 6 6 6 6 7 6 6 %.%.%.%.%.%.%.6.",
"u %.%.%.%.%.g.f.i.#.j 5 6 6 6 6 7 6 6 6 7 6 6 & %.%.%.%.%.%.%.6.",
"u %.%.%.%.%.g.f.i.#.j 6 6 6 6 6 6 6 6 6 & $ + + %.%.%.%.%.%.%.6.",
"u %.%.%.%.%.g.f.i.#.h # 6 6 6 6 6 6 6 6 # # + X %.%.%.%.%.%.%.6.",
"u %.%.%.%.%.g.f.i.@.t O # 6 6 6 6 7 6 & # X X o %.%.%.%.%.%.%.6.",
"u %.%.%.%.%.g.f.i.$.g * % # $ $ $ 3 # % - * @ X %.%.%.%.%.%.%.6.",
"u %.%.%.%.%.g.f.u.&.R S * O X O o O O - D D : X %.%.%.%.%.%.%.6.",
"u %.%.%.%.%.g.d.i.7.:.E d : > > 1 : 1 d Q U 1 . %.%.%.%.%.%.%.6.",
"u %.%.%.%.%.g.d.u.7.-._ E U U U Y Y Y W _ U > . %.%.%.%.%.%.%.6.",
"z 6.6.6.6.6.g.f.y.7.=.! E E _ { { _ T E _ U : . 6.6.6.6.6.6.6.g.",
"  u u u u u g.d.y.7.:.E a a E { { T s s W Y , . t u u u u u u z ",
"u %.%.%.%.%.g.d.y.7.:.U p p T { { T p p T T d : %.%.%.%.%.%.%.6.",
"u %.%.%.%.%.g.f.y.<.=.! T T ! ' [ ! T T ! _ T Y %.%.%.%.%.%.%.6.",
"u %.%.%.%.%.g.d.u.7.=.` ] ' ' ' ' ' { [ [ [ { { %.%.%.%.%.%.%.6.",
"u %.%.%.%.%.g.f.y.7.=.` ` ` ` ` ' ' [ [ [ [ %.%.%.%.%.%.%.%.%.6.",
"u %.%.%.%.%.d.s.t.8.;.:.,.,.,.,.,.>.) ( ( / %.%.%.%.%.%.%.%.%.6.",
"u %.%.%.q.q.r.r.r.q.8.9.w.e.e.a.a.1.I K K K J Z Z Z %.%.%.%.%.6.",
"u %.%.%.q.0.7.4.&.&.#.2.5.p.p.p.p.4.P V V C C C V V %.%.%.%.%.6.",
"u %.%.%.%.%.;.*.^ H l ..+.O.o.o.O.+.G N N M M B B B %.%.%.%.%.6.",
"u %.%.%.%.%.` ~ L A < 4 } X. .X.X.| r n b v b b v v %.%.%.%.%.6.",
"u %.%.%.%.%.] ~ E A u 3 4 4 q y y 0 e n m b b b b b %.%.%.%.%.6.",
"u %.%.%.%.%.{ Q F f 9 # O + $ $ 6 = 2 x v m m b b b %.%.%.%.%.6.",
", %.%.%.%.%.%.%.i t & & $ # & & & 6 = ; c b b b %.%.%.%.%.%.%.6.",
"u %.%.%.%.%.%.%.# 6 & 6 6 6 6 6 6 6 3 8 2 c v b %.%.%.%.%.%.%.6.",
"u %.%.%.%.%.%.%.%.%.6 6 6 6 6 6 6 6 6 & = , %.%.%.%.%.%.%.%.%.6.",
"z 6.6.6.6.6.6.6.6.6.6 6 6 6 6 6 6 6 6 6 6 6 6.6.6.6.6.6.6.6.6.g."
};
