/* XPM */
static char *result[] = {
/* columns rows colors chars-per-pixel */
"32 32 137 2 ",
"   c black",
".  c #0E0D21",
"X  c #161324",
"o  c #191627",
"O  c #15152A",
"+  c #1D1A2D",
"@  c #241C29",
"#  c #1F233B",
"$  c #22253C",
"%  c #282638",
"&  c #25283F",
"*  c #2A283B",
"=  c #3B293E",
"-  c #3F3033",
";  c #3E323C",
":  c #5A2A3D",
">  c #473637",
",  c #493737",
"<  c #403338",
"1  c #4B3938",
"2  c #6A293B",
"3  c #172C49",
"4  c #13375B",
"5  c #222740",
"6  c #252B43",
"7  c #2B2B41",
"8  c #392A41",
"9  c #3F3644",
"0  c #393C5E",
"q  c #163F65",
"w  c #7F2E42",
"e  c #793B56",
"r  c #3E4154",
"t  c #16446C",
"y  c gray25",
"u  c #55444A",
"i  c #674D43",
"p  c #694E43",
"a  c #6D5145",
"s  c #725446",
"d  c #755648",
"f  c #665A5E",
"g  c #454B61",
"h  c #4A5169",
"j  c #726065",
"k  c #7E7D7D",
"l  c #8A2937",
"z  c #882938",
"x  c #9F2633",
"c  c #972936",
"v  c #9D2835",
"b  c #A12733",
"n  c #A12835",
"m  c #AF2A37",
"M  c #B12631",
"N  c #B02D39",
"B  c #D32F38",
"V  c #D3343E",
"C  c #D43741",
"Z  c #E63B44",
"A  c #8D674F",
"S  c #916B54",
"D  c #A66C54",
"F  c #934A63",
"G  c #E84A52",
"H  c #C77C55",
"J  c #CE5E6A",
"K  c #EB636A",
"L  c #EC6A72",
"P  c #B2825F",
"I  c #B58460",
"U  c #BB8567",
"Y  c #BD8963",
"T  c #B9967E",
"R  c #C28D64",
"E  c #C69066",
"W  c #C89267",
"Q  c #CF9268",
"!  c #DB9766",
"~  c #D79C6C",
"^  c #C18D75",
"/  c #DCA06F",
"(  c #E5A46F",
")  c #E5A671",
"_  c #E8A770",
"`  c #E6A871",
"'  c #EBAB75",
"]  c #065F9B",
"[  c #28659F",
"{  c #0076BD",
"}  c #517391",
"|  c #017AC2",
" . c #3BB3F6",
".. c #5890C5",
"X. c #439DD4",
"o. c #959EB0",
"O. c #99A3B6",
"+. c #A2A6B3",
"@. c #B4B4B4",
"#. c #BEBABE",
"$. c #F39096",
"%. c #D2A383",
"&. c #DBAE8B",
"*. c #DEB18C",
"=. c #C7A093",
"-. c #D6B498",
";. c #E2B38E",
":. c #E7B891",
">. c #EBBD95",
",. c #C4B8B9",
"<. c #C4BCCA",
"1. c #C1C1C1",
"2. c #C9C2C2",
"3. c #C5C4C9",
"4. c #D3CAC8",
"5. c #C2C8D6",
"6. c #C1CBDC",
"7. c #CCD1DE",
"8. c #FAC7CB",
"9. c #E5DBDB",
"0. c #FAD2D6",
"q. c #F9EADD",
"w. c #C4D0E2",
"e. c #CBD6E5",
"r. c #CFD9E7",
"t. c #CFD9E8",
"y. c #D3DCE8",
"u. c #D8DFEA",
"i. c #FCDEE0",
"p. c #C3E5F9",
"a. c #C1EAFE",
"s. c #F9EEE1",
"d. c #E4EBF3",
"f. c #EDF1F7",
"g. c #F1F4F9",
"h. c #FFF7F8",
"j. c #FEFEFE",
/* pixels */
"  y y y y y j.j.9 r y y y y y y   y y y y y y y y y y y y y y o.",
"y @.@.@.@.@.j.j.@.@.@.@.@.@.@.1.y @.@.@.@.@.@.@.@.@.@.@.@.@.@.@.",
"y @.@.@.@.@.j.g.u.O.h 5 % 6 6 6 6 6 6 6 6 6 @.@.@.@.@.@.@.@.@.@.",
"y @.@.@.@.@.j.g.y.O.h 5 & 6 6 6 6 6 6 6 6 6 @.@.@.@.@.@.@.@.@.,.",
"y @.@.@.@.@.j.g.y.O.h 5 6 6 6 6 6 6 6 7 6 6 6 6 @.@.@.@.@.@.@.1.",
"y @.@.@.@.@.j.g.y.O.h 6 6 6 6 6 6 6 6 6 6 6 & $ @.@.@.@.@.@.@.1.",
"y @.@.@.@.@.j.g.y.O.h 5 6 6 6 6 6 6 6 6 7 6 # + @.@.@.@.@.@.@.1.",
"y @.@.@.@.@.j.g.u.o.g $ 5 6 6 6 7 6 6 6 6 # o X @.@.@.@.@.@.@.1.",
"y @.@.@.@.@.j.g.y.o.r O # 6 6 6 6 6 6 & + O X X @.@.@.@.@.@.@.1.",
"y @.@.@.@.@.j.g.y.+.f - % # # $ $ $ # * ; - @ X @.@.@.@.@.@.@.1.",
"y @.@.@.@.@.j.g.t.,.T A - O O o O O X ; S S - X @.@.@.@.@.@.@.1.",
"y @.@.@.@.@.j.g.t.2.;.R s , , , 1 , 1 d W P 1 . @.@.@.@.@.@.@.1.",
"y @.@.@.@.@.j.g.t.2.*./ R P P P P P P E ( P 1 X @.@.@.@.@.@.@.1.",
"y @.@.@.@.@.j.f.t.2.*./ R R ( ' ' / Y E / P , . @.@.@.@.@.@.@.1.",
"y @.@.@.@.@.j.g.r.2.*.P p i R ' ' Y p a E P > . @.@.@.@.@.@.@.1.",
"k 1.1.1.1.1.j.g.r.2.*.Y p i P ' ' Y i p P R s , 1.1.1.1.1.1.1.j.",
"  y y y y r j.g.r.2.&.~ Y Y ~ ) ` ~ Y Y ~ ~ R I y y y y y y y } ",
"y @.@.@.@.@.j.g.r.2.&.( ( ` ( ( ` ) ` ` ) ) ` ' @.@.@.@.@.@.,.4.",
"y @.@.@.@.@.j.g.r.2.&.( _ ( ( ( ) ) ) ) ) ) @.@.@.@.@.@.@.@.@.,.",
"y @.@.@.@.@.f.d.e.3.-.;.:.>.>.>.>.>.>.>.>.>.@.@.@.@.@.@.@.@.@.,.",
"y @.@.@.5.6.r.t.w.5.3.4.9.q.q.q.q.q.s.s.s.s.@.@.@.@.@.@.@.@.@.1.",
"y @.@.@.6.5.3.,.#.<.7.u.j.j.j.j.j.h.i.0.0.8.@.@.@.@.@.@.@.@.@.1.",
"y @.@.@.@.@.-.%.^ =.9.j.h.j.j.j.j.i.$.L L K G Z Z Z @.@.@.@.@.1.",
"y @.@.@.@.@.( ! H U ,.7.p.a.a.a.a.<.J B V V C C V V @.@.@.@.@.1.",
"y @.@.@.@.@.( ! Y D j } X. . . . ...F M m m N N N N @.@.@.@.@.1.",
"y @.@.@.@.@.' Q D d < 4 ] { | | | [ e b x v v v v v @.@.@.@.@.1.",
"y @.@.@.@.@.@.@.u 9 * 3 3 4 q t t 0 w b b v v v v v @.@.@.@.@.1.",
"y @.@.@.@.@.@.@.6 6 6 # @ + $ $ 5 = 2 l v v n v n v @.@.@.@.@.1.",
"y @.@.@.@.@.@.@.6 6 6 & $ $ & & 6 * 8 : z n n v @.@.@.@.@.@.@.1.",
"y @.@.@.@.@.@.@.6 6 6 6 6 6 6 6 6 6 3 8 2 z c v @.@.@.@.@.@.@.1.",
"y @.@.@.@.@.@.@.@.@.6 & 6 6 & 6 6 6 6 7 = < @.@.@.@.@.@.@.@.@.1.",
"k 1.1.1.1.1.1.1.1.1.6 6 6 6 6 6 6 6 6 6 6 6 1.1.1.1.1.1.1.1.1.j."
};
