/* XPM */
static char *result[] = {
/* columns rows colors chars-per-pixel */
"32 32 140 2 ",
"   c black",
".  c #0D091B",
"X  c #130F20",
"o  c #151122",
"O  c #191526",
"+  c #16162B",
"@  c #1B1A2D",
"#  c #1E1E32",
"$  c #351A2B",
"%  c #1E2037",
"&  c #1E223B",
"*  c #21253C",
"=  c #2A2639",
"-  c #3C2F35",
";  c #3C273C",
":  c #45293F",
">  c #5B2E3E",
",  c #443436",
"<  c #4C3939",
"1  c #6B2231",
"2  c #68283B",
"3  c #1F2C44",
"4  c #0B3153",
"5  c #1C3350",
"6  c #222740",
"7  c #252B43",
"8  c #2A2B42",
"9  c #3B2A40",
"0  c #373748",
"q  c #273557",
"w  c #4D3F48",
"e  c #5D3D5E",
"r  c #3E4154",
"t  c gray25",
"y  c #4A434C",
"u  c #52464C",
"i  c #4F4B58",
"p  c #514D5A",
"a  c #694D42",
"s  c #6D5145",
"d  c #725445",
"f  c #665A5E",
"g  c #454B61",
"h  c #4A5169",
"j  c #5D5964",
"k  c #545B71",
"l  c #706366",
"z  c #7E7D7D",
"x  c #862736",
"c  c #9E2634",
"v  c #8F353B",
"b  c #AF2C39",
"n  c #A43739",
"m  c #B3373B",
"M  c #D4373F",
"N  c #873F57",
"B  c #D33640",
"V  c #D73D40",
"C  c #E63B44",
"Z  c #AA5042",
"A  c #BC5043",
"S  c #B35D46",
"D  c #8D674F",
"F  c #A16951",
"G  c #B17F5F",
"H  c #926566",
"J  c #9C7E75",
"K  c #E54647",
"L  c #C87B53",
"P  c #E77673",
"I  c #B3835F",
"U  c #9A8378",
"Y  c #AC8265",
"T  c #B68560",
"R  c #B88762",
"E  c #BD8A62",
"W  c #BB8D79",
"Q  c #B9967E",
"!  c #C38E65",
"~  c #DA9A68",
"^  c #D99D6C",
"/  c #C18D75",
"(  c #D38979",
")  c #E58464",
"_  c #E09A67",
"`  c #E69772",
"'  c #DDA16F",
"]  c #E6A56E",
"[  c #E5A671",
"{  c #E8A770",
"}  c #E7AA74",
"|  c #EAAB73",
" . c #236D9E",
".. c #0274BB",
"X. c #1678BF",
"o. c #4773A1",
"O. c #3AB3F6",
"+. c #5BA2CC",
"@. c #959EB0",
"#. c #99A2B6",
"$. c #A2A9B9",
"%. c #B4B4B4",
"&. c #BEBABE",
"*. c #C79F92",
"=. c #D2A383",
"-. c #DBAE8B",
";. c #DEB18C",
":. c #D6B498",
">. c #E6B28C",
",. c #E7B891",
"<. c #EBBD95",
"1. c #C3BABD",
"2. c #F4C5BA",
"3. c #BBC7D5",
"4. c #C1C1C1",
"5. c #C9C2C2",
"6. c #C6C5C9",
"7. c #C9C8CB",
"8. c #D3CAC8",
"9. c #C1C9D4",
"0. c #C2CCDC",
"q. c #C6D0DF",
"w. c #CCD0DC",
"e. c #D2D1D4",
"r. c #E6D9D8",
"t. c #F8D9D6",
"y. c #C6D2E2",
"u. c #CBD7E6",
"i. c #CFD8E6",
"p. c #D4DDEA",
"a. c #DEE5EF",
"s. c #C1EAFF",
"d. c #FAEEE1",
"f. c #E4EAF3",
"g. c #F0EFF0",
"h. c #EEF2F7",
"j. c #EFF4F8",
"k. c #F3F6FA",
"l. c #F5F9FD",
"z. c #FCFDFF",
/* pixels */
"  t t t t t t t w 0 t t t t t t   t q.3.t t t t t t t t t t t J ",
"t %.%.%.%.%.%.%.%.%.%.%.%.%.%.4.t %.3.y.%.%.%.%.%.%.%.%.%.%.%.3.",
"t %.%.%.%.%.%.%.%.%.7 7 7 7 7 * 6 k $.i.h.z.%.%.%.%.%.%.%.%.%.&.",
"t %.%.%.%.%.%.%.%.&.7 7 7 7 7 7 6 h #.p.k.h.%.%.%.%.%.%.%.%.%.&.",
"t %.%.%.%.%.%.%.7 7 8 7 7 7 7 7 6 h #.p.l.e.j . %.%.%.%.%.%.%.4.",
"t %.%.%.%.%.%.%.7 7 7 7 7 7 7 7 6 h #.p.l.6.i X %.%.%.%.%.%.%.4.",
"t %.%.%.%.%.%.%.8 7 7 7 7 7 7 7 6 h #.p.z.6.p o X o %.%.%.%.%.4.",
"t %.%.%.%.%.%.%.6 7 7 7 8 8 7 6 % g #.a.l.7.p o o o %.%.%.%.%.4.",
"t %.%.%.%.%.%.%.@ # * 7 7 7 7 * O r @.a.z.7.p X o O %.%.%.%.%.3.",
"t %.%.%.%.%.%.%.o @ % * * & * = - f #.p.l.7.p X o O %.%.%.%.%.4.",
"t %.%.%.%.%.%.%.%.%.@ + + + + - D Q &.p.l.7.p X o O %.%.%.%.%.4.",
"t %.%.%.%.%.%.%.%.%.< < < , , d ! >.4.a.l.7.p X o O %.%.%.%.%.4.",
"t %.%.%.%.%.%.%.%.%.R T I I T ! ' ;.4.p.l.7.p X o O %.%.%.%.%.4.",
"t %.%.%.%.%.%.%.%.%.I ! ' ' ! E ~ -.4.p.l.7.p X o o %.%.%.%.%.4.",
"t %.%.%.%.%.%.%.%.%., s ! ! s a I ;.5.p.l.7.p X o O %.%.%.%.%.4.",
"z 4.4.4.4.4.4.4.4.4.- s ! E a a ! ;.5.p.l.5.p X X O 4.4.4.4.4.z.",
"  t t t t t t r t t G E ^ ^ ! I ~ ;.5.p.l.6.i X 0 t t t t t t J ",
"t %.%.%.%.%.%.%.%.%.} } ] { { { ] -.4.i.l.e.j . %.%.%.%.%.%.%.3.",
"t %.%.%.%.%.%.%.%.%.} } [ ] { { ] ;.5.p.k.g.%.%.%.%.%.%.%.%.%.%.",
"t %.%.%.%.%.%.%.%.%.) ` >.<.<.,.;.:.6.y.f.j.%.%.%.%.%.%.%.%.%.4.",
"t %.%.%.%.%.%.%.C K K P 2.d.d.r.8.6.9.y.u.u.y.y.%.%.%.%.%.%.%.4.",
"t %.%.%.%.%.%.%.B M V P t.z.z.z.a.w.1.&.1.6.9.0.%.%.%.%.%.%.%.4.",
"t %.%.%.%.%.%.%.b m A ( t.z.z.z.z.r.*./ =.;.%.%.%.%.%.%.%.%.%.4.",
"t %.%.%.%.%.%.%.c n S W 9.s.s.s.s.3.W L ~ { %.%.%.%.%.%.%.%.%.4.",
"t %.%.%.%.%.%.%.b n S J +.O.O.O.O.+.U L _ | %.%.%.%.%.%.%.%.%.4.",
"t %.%.%.%.%.%.%.1 v Z H o.X....... .l F I Y %.%.%.%.%.%.%.%.%.4.",
"t %.%.%.%.%.%.%.9 > v Z N e q 4 4 5 0 y u y 0 3 %.%.%.%.%.%.%.4.",
"t %.%.%.%.%.%.%.3 9 2 x x 1 $ + O @ & 6 3 7 7 7 %.%.%.%.%.%.%.4.",
"t %.%.%.%.%.%.%.3 8 9 : : ; = * = * 7 7 7 7 7 = %.%.%.%.%.%.%.4.",
"t %.%.%.%.%.%.%.7 7 7 3 7 7 7 7 7 7 7 7 7 7 7 3 %.%.%.%.%.%.%.4.",
"t %.%.%.%.%.%.%.%.%.* 7 7 7 7 7 7 7 7 7 3 7 %.%.%.%.%.%.%.%.%.4.",
"z 4.4.4.4.4.4.4.4.4.3 7 7 7 7 7 7 8 * 7 * 7 4.4.4.4.4.4.4.4.4.z."
};
