/* XPM */
static char *result[] = {
/* columns rows colors chars-per-pixel */
"32 32 141 2 ",
"   c black",
".  c #0E0A1C",
"X  c #100C1D",
"o  c #151122",
"O  c #191526",
"+  c #16162B",
"@  c #1B1A2D",
"#  c #1E1E32",
"$  c #351A2B",
"%  c #1E223B",
"&  c #21253C",
"*  c #2A2639",
"=  c #3C2F35",
"-  c #3F3135",
";  c #463536",
":  c #4A3737",
">  c #4C3939",
",  c #6B2231",
"<  c #68283B",
"1  c #1F2C44",
"2  c #0B3153",
"3  c #1C3350",
"4  c #222740",
"5  c #252B43",
"6  c #2A2B42",
"7  c #3B2A40",
"8  c #333446",
"9  c #3C3B4C",
"0  c #273557",
"q  c #4D3F48",
"w  c #5D3D5E",
"e  c #3E4154",
"r  c gray25",
"t  c #4A434C",
"y  c #52464C",
"u  c #4D4956",
"i  c #4F4B58",
"p  c #514D5A",
"a  c #694D42",
"s  c #6D5145",
"d  c #725445",
"f  c #665A5E",
"g  c #4A5169",
"h  c #5C5965",
"j  c #525970",
"k  c #706366",
"l  c #6B6C7A",
"z  c #7E7D7D",
"x  c #862736",
"c  c #9E2634",
"v  c #AF2A39",
"b  c #A43738",
"n  c #A73839",
"m  c #B33E3E",
"M  c #D3343F",
"N  c #9F3B44",
"B  c #873F57",
"V  c #E63844",
"C  c #AA5042",
"Z  c #B35B45",
"A  c #8D674F",
"S  c #BC654D",
"D  c #A16951",
"F  c #B17F5F",
"G  c #926566",
"H  c #9C7E75",
"J  c #D54D49",
"K  c #E75C52",
"L  c #C87B53",
"P  c #D77F5E",
"I  c #B3835F",
"U  c #BC875F",
"Y  c #9A8278",
"T  c #AC8265",
"R  c #B68560",
"E  c #B88762",
"W  c #BE8A62",
"Q  c #BB8C79",
"!  c #B9967E",
"~  c #C38E65",
"^  c #DD9865",
"/  c #D99D6C",
"(  c #C18D75",
")  c #D29979",
"_  c #E49769",
"`  c #DDA16F",
"'  c #E5A56E",
"]  c #E5A671",
"[  c #EAA271",
"{  c #E7AA75",
"}  c #EAAA72",
"|  c #236D9E",
" . c #0274BB",
".. c #1678BF",
"X. c #4773A1",
"o. c #3CB4F7",
"O. c #3AB4F9",
"+. c #5BA2CC",
"@. c #969FB0",
"#. c #99A2B6",
"$. c #A2A6B3",
"%. c #A3ACBE",
"&. c #B4B4B4",
"*. c #BEBABE",
"=. c #C79F92",
"-. c #D2A383",
";. c #DFAC83",
":. c #DCAF8B",
">. c #DEB18C",
",. c #D7B499",
"<. c #E6B58D",
"1. c #EFBD94",
"2. c #CFBAAD",
"3. c #C3BABD",
"4. c #E8C5A9",
"5. c #F0D2BE",
"6. c #C2BEC6",
"7. c #BFCCD9",
"8. c #C1C1C1",
"9. c #C9C2C2",
"0. c #C6C5CA",
"q. c #C8C7CA",
"w. c #C9C8CB",
"e. c #C0CAD2",
"r. c #C2CCDB",
"t. c #D5D2D4",
"y. c #E6DAD8",
"u. c #FFEDDF",
"i. c #C5D1E4",
"p. c #CCD6E5",
"a. c #CDD9E9",
"s. c #D2DAE7",
"d. c #D4DDEB",
"f. c #C2ECFF",
"g. c #FFEEE0",
"h. c #FDF0E6",
"j. c #ECEFF4",
"k. c #F5F5F6",
"l. c #F3F5F9",
"z. c #F5F9FD",
"x. c #FCFDFE",
/* pixels */
"  r r r r r r r q 9 - e r r r r   r r.7.r r r r r r r r r r r z ",
"r &.&.&.&.&.&.&.&.&.&.&.&.&.&.8.r &.r.r.&.&.&.&.&.&.&.&.&.&.&.8.",
"r &.&.&.&.&.&.&.&.&.&.&.&.&.&.8.- &.r.p.j.x.&.&.&.&.&.&.&.&.&.8.",
"r &.&.&.&.&.&.&.&.&.&.&.&.&.&.8.r &.7.s.l.x.&.&.&.&.&.&.&.&.&.8.",
"r &.&.&.&.&.&.&.&.&.5 5 5 5 5 4 % j %.d.l.x.&.&.&.&.&.&.&.&.&.8.",
"r &.&.&.&.&.&.&.&.&.5 5 5 5 5 4 1 g #.d.k.j.&.&.&.&.&.&.&.&.&.8.",
"r &.&.&.&.&.&.&.5 0 6 6 5 6 5 5 1 g #.d.z.t.h . &.&.&.&.&.&.&.8.",
"r &.&.&.&.&.&.&.5 6 5 5 5 5 5 5 & g #.d.x.q.u X &.&.&.&.&.&.&.8.",
"r &.&.&.&.&.&.&.5 6 5 5 6 5 5 5 4 g #.d.x.q.p X o O &.&.&.&.&.8.",
"r &.&.&.&.&.&.&.& 4 5 5 5 5 5 5 & g #.d.z.w.p o o O &.&.&.&.&.8.",
"r &.&.&.&.&.&.&.@ # 4 6 5 5 5 % + e @.d.x.q.p X o O &.&.&.&.&.8.",
"r &.&.&.&.&.&.&.o @ % & & & % * = f $.d.z.w.p o o O &.&.&.&.&.8.",
"r &.&.&.&.&.&.&.&.&.+ + + + + = A ! *.d.z.q.p X o O &.&.&.&.&.8.",
"r &.&.&.&.&.&.&.&.&.> > : : ; d ~ <.9.s.z.q.p o o O &.&.&.&.&.8.",
"r &.&.&.&.&.&.&.&.&.E R I I R ~ / >.9.d.z.q.p o o O &.&.&.&.&.8.",
"z 8.8.8.8.8.8.8.8.8.R ~ ` ` ~ W / :.9.d.z.q.p o o O 8.8.8.8.8.x.",
"  r r r r r r 9 r 9 ; d ~ ~ s a E :.9.d.z.w.i o o + r r r r r z ",
"r &.&.&.&.&.&.&.&.&.= s W W a a U <.9.s.z.0.i X X + &.&.&.&.&.8.",
"r &.&.&.&.&.&.&.&.&.T W / / W W ^ ;.9.d.z.0.u . &.&.&.&.&.&.&.8.",
"r &.&.&.&.&.&.&.&.&.[ { ] ] ] { ;.2.0.a.j.0.l q &.&.&.&.&.&.&.8.",
"r &.&.&.&.&.&.&.V K _ } ' ' ' ;.2.7.r.i.p.r.%.@.&.&.&.&.&.&.&.8.",
"r &.&.&.&.&.&.&.M J P ] <.1.1.4.t.r.6.3.3.9.r.i.&.&.&.&.&.&.&.8.",
"r &.&.&.&.&.&.&.v m S ) 5.u.g.g.h.y.=.( -.,.&.&.&.&.&.&.&.&.&.8.",
"r &.&.&.&.&.&.&.c b Z Q 7.f.f.f.f.e.Q L ^ } &.&.&.&.&.&.&.&.&.8.",
"r &.&.&.&.&.&.&.v n Z Y +.O.o.o.o.+.H L ' } &.&.&.&.&.&.&.&.&.8.",
"r &.&.&.&.&.&.&., c C G X... . . .| k D F T &.&.&.&.&.&.&.&.&.8.",
"r &.&.&.&.&.&.&.7 q c N B w 0 2 2 3 9 t y t 8 1 &.&.&.&.&.&.&.8.",
"r &.&.&.&.&.&.&.1 7 < , x , $ @ O @ % 5 4 & 5 6 &.&.&.&.&.&.&.8.",
"r &.&.&.&.&.&.&.5 6 7 q q - * & & & & 5 5 & 5 5 &.&.&.&.&.&.&.8.",
"r &.&.&.&.&.&.&.5 5 5 1 1 & 5 5 5 5 5 5 5 5 5 5 &.&.&.&.&.&.&.8.",
"r &.&.&.&.&.&.&.&.&.4 5 4 4 5 5 6 5 5 5 5 5 &.&.&.&.&.&.&.&.&.8.",
"z 8.8.8.8.8.8.8.8.8.5 5 5 4 5 5 5 5 5 5 5 5 8.8.8.8.8.8.8.8.8.x."
};
