/* XPM */
static char *result[] = {
/* columns rows colors chars-per-pixel */
"32 32 143 2 ",
"   c black",
".  c #0E0A1C",
"X  c #130F20",
"o  c #151223",
"O  c #181425",
"+  c #16162B",
"@  c #1B192C",
"#  c #1E1E32",
"$  c #351A2B",
"%  c #1E2037",
"&  c #1D223C",
"*  c #21253C",
"=  c #2A2639",
"-  c #2B293C",
";  c #382730",
":  c #3C2F35",
">  c #3C273C",
",  c #45293F",
"<  c #5B2E3E",
"1  c #443436",
"2  c #4A3737",
"3  c #4C3939",
"4  c #6A2536",
"5  c #1F2C44",
"6  c #093054",
"7  c #222740",
"8  c #252B43",
"9  c #2A2B42",
"0  c #3B2A40",
"q  c #383445",
"w  c #273557",
"e  c #5D3D5E",
"r  c #3B4153",
"t  c gray25",
"y  c #47414C",
"u  c #4D4049",
"i  c #52474D",
"p  c #4F4B58",
"a  c #514D5A",
"s  c #5D5050",
"d  c #694D42",
"f  c #774C43",
"g  c #6D5145",
"h  c #725445",
"j  c #665A5E",
"k  c #454B61",
"l  c #4A5169",
"z  c #5D5A65",
"x  c #545B71",
"c  c #7E7D7D",
"v  c #862736",
"b  c #9E2634",
"n  c #8F353B",
"m  c #AF2C39",
"M  c #A63839",
"N  c #B3373B",
"B  c #873F57",
"V  c #D53A40",
"C  c #E63B44",
"Z  c #915F4F",
"A  c #AA5042",
"S  c #BC5043",
"D  c #B35D46",
"F  c #8D674F",
"G  c #91715E",
"H  c #A26C54",
"J  c #8C6E66",
"K  c #926566",
"L  c #E54647",
"P  c #CA7C53",
"I  c #E77673",
"U  c #B3835F",
"Y  c #9A8378",
"T  c #B58461",
"R  c #B88762",
"E  c #BD8A62",
"W  c #B9967E",
"Q  c #CD8057",
"!  c #C38E65",
"~  c #C29068",
"^  c #D79C6A",
"/  c #D99E6C",
"(  c #C58F75",
")  c #D38979",
"_  c #E58464",
"`  c #E39C69",
"'  c #E69772",
"]  c #DDA16F",
"[  c #E5A56E",
"{  c #E5A670",
"}  c #E7AA74",
"|  c #E9AA73",
" . c #2D729F",
".. c #0274BB",
"X. c #1678BF",
"o. c #4773A1",
"O. c #2DA8EF",
"+. c #37AFF3",
"@. c #3AB3F6",
"#. c #4E9CCC",
"$. c #59A3CC",
"%. c #978C8E",
"&. c #959EB0",
"*. c #99A2B6",
"=. c #B4B4B4",
"-. c #BEBABE",
";. c #D5A483",
":. c #DBAE8A",
">. c #DEB18C",
",. c #DBB393",
"<. c #E6B28C",
"1. c #EBBC94",
"2. c #C4BBBD",
"3. c #E0BFA5",
"4. c #F4C5BA",
"5. c #9ABBD7",
"6. c #B2B6C3",
"7. c #BBC7D5",
"8. c #9BC9E9",
"9. c #B5DEF7",
"0. c #C1C1C1",
"q. c #C9C2C2",
"w. c #C7C5C9",
"e. c #C9C8CB",
"r. c #C4CAD7",
"t. c #C2CDDD",
"y. c #C9D1DE",
"u. c #D2D1D4",
"i. c #F8D9D6",
"p. c #EBE2DD",
"a. c #FAEBDE",
"s. c #C4D0E1",
"d. c #CCD6E5",
"f. c #CFD8E6",
"g. c #D4DDEA",
"h. c #C2EAFF",
"j. c #E0E4ED",
"k. c #E5EAF2",
"l. c #EFEFF0",
"z. c #EEF2F7",
"x. c #F2F6FA",
"c. c #F5F9FD",
"v. c #FDFDFE",
/* pixels */
"  t t t t t t t q t t t t t t t   t s.7.t t t t t t t t t t t J ",
"t =.=.=.=.=.=.=.=.=.=.=.=.=.=.0.t =.7.d.=.=.=.=.=.=.=.=.=.=.=.7.",
"t =.=.=.=.=.=.=.=.=.9 8 9 8 8 8 7 x *.f.z.v.=.=.=.=.=.=.=.=.=.7.",
"t =.=.=.=.=.=.=.=.-.8 9 8 9 8 8 7 l *.g.x.l.=.=.=.=.=.=.=.=.=.0.",
"t =.=.=.=.=.=.=.8 8 8 8 8 8 8 8 7 l *.g.c.u.z . =.=.=.=.=.=.=.0.",
"t =.=.=.=.=.=.=.8 8 8 8 8 8 8 8 7 l *.j.c.w.p X =.=.=.=.=.=.=.0.",
"t =.=.=.=.=.=.=.8 8 9 8 8 8 8 8 7 l *.g.v.w.a X X O =.=.=.=.=.0.",
"t =.=.=.=.=.=.=.7 8 8 9 9 8 8 * & k *.g.c.e.a o X O =.=.=.=.=.0.",
"t =.=.=.=.=.=.=.@ # * 8 8 8 8 * + y &.j.v.e.a X X O =.=.=.=.=.0.",
"t =.=.=.=.=.=.=.O @ % * & & * - : j *.g.c.e.a X o O =.=.=.=.=.0.",
"t =.=.=.=.=.=.=.=.=.+ + + + + : F W -.g.c.e.a X o O =.=.=.=.=.0.",
"t =.=.=.=.=.=.=.=.=.3 3 2 2 1 h ~ >.q.f.c.e.a X o O =.=.=.=.=.0.",
"t =.=.=.=.=.=.=.=.=.R T T U T ! ] >.q.f.c.e.a X o O =.=.=.=.=.0.",
"t =.=.=.=.=.=.=.=.=.T ! ] ] ! E ] :.q.g.c.e.a X o O =.=.=.=.=.0.",
"t =.=.=.=.=.=.=.=.=.1 g ! ! g d U >.q.g.c.e.a X o O =.=.=.=.=.0.",
"c 0.0.0.0.0.0.0.0.0.1 d E ! d d ! >.q.f.c.e.a X X O 0.0.0.0.0.v.",
"  t t t t t t t t t H E / / ! U ] :.q.f.c.w.p X t t t t t t t c ",
"t =.=.=.=.=.=.=.=.-.} | { [ { | [ :.q.f.x.u.z . =.=.=.=.=.=.=.0.",
"t =.=.=.=.=.=.=.=.=.| } { { { [ [ >.q.f.x.l.=.=.=.=.=.=.=.=.=.0.",
"t =.=.=.=.=.=.=.=.=._ ' <.1.1.1.1.3.e.f.x.v.=.=.=.=.=.=.=.=.=.0.",
"t =.=.=.=.=.=.=.L C L I 4.a.a.a.a.p.y.f.z.v.=.=.=.=.=.=.=.=.=.0.",
"t =.=.=.=.=.=.=.V V V I i.v.v.v.c.k.d.d.k.z.=.=.=.=.=.=.=.=.=.0.",
"t =.=.=.=.=.=.=.m N S ) i.v.v.v.j.y.y.s.d.d.t.t.=.=.=.=.=.=.=.0.",
"t =.=.=.=.=.=.=.b M D W e.h.h.9.8.5.6.2.2.e.r.t.=.=.=.=.=.=.=.0.",
"t =.=.=.=.=.=.=.m M D Y $.@.@.+.O.#.%.( ;.,.=.=.=.=.=.=.=.=.=.0.",
"t =.=.=.=.=.=.=.4 n A K o.X....... .J P ^ ] =.=.=.=.=.=.=.=.=.0.",
"t =.=.=.=.=.=.=.0 < n M B e w 6 6 r Z Q ` ! s & =.=.=.=.=.=.=.0.",
"t =.=.=.=.=.=.=.5 > 4 4 v 4 $ O + ; f H T G y 7 =.=.=.=.=.=.=.0.",
"r =.=.=.=.=.=.=.5 9 : e , > = * % - q u i y q 8 =.=.=.=.=.=.=.7.",
"t =.=.=.=.=.=.=.8 8 8 5 8 8 8 5 8 8 8 8 5 8 5 8 =.=.=.=.=.=.=.2.",
"t =.=.=.=.=.=.=.=.=.5 & 8 8 8 8 8 8 8 8 & 5 =.=.=.=.=.=.=.=.=.2.",
"J 0.0.0.0.0.0.0.0.0.8 8 8 8 8 8 - 8 8 8 8 - 0.0.0.0.0.0.0.0.0.v."
};
