/* XPM */
static char *result[] = {
/* columns rows colors chars-per-pixel */
"32 32 141 2 ",
"   c black",
".  c #0D091B",
"X  c #130F20",
"o  c #151223",
"O  c #181425",
"+  c #16162B",
"@  c #1B192C",
"#  c #1E1E32",
"$  c #351A2B",
"%  c #1E2037",
"&  c #1D223C",
"*  c #21253C",
"=  c #2A2639",
"-  c #2B293C",
";  c #382730",
":  c #3C2F35",
">  c #3C273C",
",  c #3F3135",
"<  c #45293F",
"1  c #463536",
"2  c #4A3737",
"3  c #4C3939",
"4  c #6A2536",
"5  c #1F2C44",
"6  c #093054",
"7  c #222740",
"8  c #252B43",
"9  c #2A2B42",
"0  c #3B2A40",
"q  c #383445",
"w  c #273557",
"e  c #5D3D5E",
"r  c #3B4153",
"t  c gray25",
"y  c #47414C",
"u  c #4D4049",
"i  c #52474D",
"p  c #4F4B58",
"a  c #514D5A",
"s  c #5D5050",
"d  c #694D42",
"f  c #774C43",
"g  c #6D5145",
"h  c #725445",
"j  c #665A5E",
"k  c #4A5169",
"l  c #5C5864",
"z  c #525970",
"x  c #7E7D7D",
"c  c #862736",
"v  c #802738",
"b  c #9E2634",
"n  c #8F353B",
"m  c #AF2A39",
"M  c #A43738",
"N  c #B33E3E",
"B  c #D3343F",
"V  c #E63844",
"C  c #915F4F",
"Z  c #AA5042",
"A  c #B35B45",
"S  c #8D674F",
"D  c #91715E",
"F  c #BC654D",
"G  c #A26C54",
"H  c #8C6E66",
"J  c #926566",
"K  c #D54D49",
"L  c #E75C52",
"P  c #CA7C53",
"I  c #D77F5E",
"U  c #B3835F",
"Y  c #B58461",
"T  c #B88762",
"R  c #BD8A62",
"E  c #BA8E7B",
"W  c #B9967E",
"Q  c #CD8057",
"!  c #C38E65",
"~  c #C29068",
"^  c #D79C6A",
"/  c #D99E6C",
"(  c #C58F75",
")  c #D29979",
"_  c #E49969",
"`  c #DDA16F",
"'  c #E6A56E",
"]  c #E5A671",
"[  c #E9A571",
"{  c #E8AA74",
"}  c #2D729F",
"|  c #0274BB",
" . c #1678BF",
".. c #4773A1",
"X. c #2EAAF1",
"o. c #37B0F5",
"O. c #3AB4F9",
"+. c #4E9DCE",
"@. c #59A3CD",
"#. c #978C8F",
"$. c #959EB0",
"%. c #99A2B6",
"&. c #A1A9B9",
"*. c #B4B4B4",
"=. c #BEBABE",
"-. c #D5A483",
";. c #DBAE8B",
":. c #DEB18C",
">. c #DBB393",
",. c #D6B69F",
"<. c #E3B38D",
"1. c #EEBC94",
"2. c #C6BEBF",
"3. c #F0D2BE",
"4. c #9ABDDA",
"5. c #B2B7C4",
"6. c #BFCCD9",
"7. c #9BCBEC",
"8. c #B5E0FA",
"9. c #C1C1C1",
"0. c #C9C2C2",
"q. c #C7C5C9",
"w. c #C9C8CB",
"e. c #D9CDC8",
"r. c #C4CAD7",
"t. c #C2CCDC",
"y. c #D2D1D4",
"u. c #F3E2D6",
"i. c #C5D1E2",
"p. c #CCD6E6",
"a. c #D2DAE7",
"s. c #D4DDEA",
"d. c #C2EDFF",
"f. c #FFEFE1",
"g. c #E4EAF3",
"h. c #EEEFF2",
"j. c #EFF4F8",
"k. c #F1F2F4",
"l. c #F3F5F9",
"z. c #F5F9FD",
"x. c #FCFDFE",
/* pixels */
"  t t t t t t t e : t t t t t t   t 6.6.t t t t t t t t t t t x ",
"t *.*.*.*.*.*.*.*.*.*.*.*.*.*.9.t *.6.i.*.*.*.*.*.*.*.*.*.*.*.9.",
"t *.*.*.*.*.*.*.*.*.*.*.*.*.*.9., *.6.p.h.x.*.*.*.*.*.*.*.*.*.9.",
"t *.*.*.*.*.*.*.*.*.*.*.*.*.*.9.r *.6.a.l.x.*.*.*.*.*.*.*.*.*.9.",
"t *.*.*.*.*.*.*.*.*.8 8 8 8 8 7 & z &.s.z.x.*.*.*.*.*.*.*.*.*.9.",
"t *.*.*.*.*.*.*.*.=.8 8 8 8 8 8 & k %.s.l.k.*.*.*.*.*.*.*.*.*.9.",
"t *.*.*.*.*.*.*.8 9 9 8 8 8 8 8 * k %.s.x.y.l . *.*.*.*.*.*.*.9.",
"t *.*.*.*.*.*.*.8 8 8 8 8 9 8 8 5 k %.s.x.9.p X *.*.*.*.*.*.*.9.",
"t *.*.*.*.*.*.*.8 8 8 8 8 8 8 8 8 k %.s.x.w.p X o O *.*.*.*.*.9.",
"t *.*.*.*.*.*.*.* 7 9 8 8 8 9 8 & p %.s.z.w.p X o O *.*.*.*.*.9.",
"t *.*.*.*.*.*.*.@ # 7 8 8 8 8 & + r $.s.x.w.a o o O *.*.*.*.*.9.",
"t *.*.*.*.*.*.*.o @ * * * * * = : j &.s.z.w.p X o O *.*.*.*.*.9.",
"t *.*.*.*.*.*.*.*.*.+ + + + o : S W =.s.z.w.a X o O *.*.*.*.*.9.",
"t *.*.*.*.*.*.*.*.*.3 2 2 2 1 h ! <.0.s.z.w.a o o O *.*.*.*.*.9.",
"t *.*.*.*.*.*.*.*.*.T T U U U ! ` :.0.s.z.w.p X o O *.*.*.*.*.9.",
"x 9.9.9.9.9.9.9.9.9.U ! ` ` ! ! ^ ;.0.s.z.w.p o o O 9.9.9.9.9.x.",
"  t t t t t t q t r 1 h ! ! g d R :.0.s.z.w.a X o o 1 r t t t x ",
"t *.*.*.*.*.*.*.*.*., h R R d d U <.0.s.z.q.a X o O *.*.*.*.*.9.",
"t *.*.*.*.*.*.*.*.*.G ~ ` / T R ^ ;.0.s.z.q.a X *.*.*.*.*.*.*.9.",
"t *.*.*.*.*.*.*.*.*.] { ] ] [ [ ' ;.0.a.z.y.l . *.*.*.*.*.*.*.9.",
"t *.*.*.*.*.*.*.V L _ [ [ _ [ ] ' ;.0.a.j.h.*.*.*.*.*.*.*.*.*.9.",
"t *.*.*.*.*.*.*.B K I ] <.1.1.1.<.,.q.p.g.j.*.*.*.*.*.*.*.*.*.9.",
"t *.*.*.*.*.*.*.m N F ) 3.f.f.u.e.q.r.t.p.p.i.t.*.*.*.*.*.*.*.9.",
"t *.*.*.*.*.*.*.b M A E r.d.d.8.7.4.5.=.2.q.r.i.*.*.*.*.*.*.*.9.",
"t *.*.*.*.*.*.*.b M A D @.O.O.o.X.+.#.( -.>.*.*.*.*.*.*.*.*.*.9.",
"t *.*.*.*.*.*.*.v c Z J .. .| | | } H P ^ / *.*.*.*.*.*.*.*.*.9.",
"t *.*.*.*.*.*.*.0 e n Z C e w 6 6 r C Q _ ~ s & *.*.*.*.*.*.*.9.",
"t *.*.*.*.*.*.*.5 0 4 c c 4 $ o + ; f G Y D y 5 *.*.*.*.*.*.*.9.",
"t *.*.*.*.*.*.*.5 9 0 < < > - * % - q u i y q 8 *.*.*.*.*.*.*.9.",
"t *.*.*.*.*.*.*.- 5 5 5 8 5 - 8 8 8 8 8 8 * 5 8 *.*.*.*.*.*.*.9.",
"t *.*.*.*.*.*.*.*.*.8 8 8 8 8 8 8 8 8 8 8 5 *.*.*.*.*.*.*.*.*.9.",
"x 9.9.9.9.9.9.9.9.9.8 8 5 8 8 8 8 8 * 8 5 - 9.9.9.9.9.9.9.9.9.x."
};
