/* XPM */
static char *result[] = {
/* columns rows colors chars-per-pixel */
"32 32 136 2 ",
"   c black",
".  c #0E0919",
"X  c #110C1E",
"o  c #130F20",
"O  c #151122",
"+  c #181425",
"@  c #16162B",
"#  c #1B192C",
"$  c #1E1E32",
"%  c #351A2B",
"&  c #1E2037",
"*  c #1E233B",
"=  c #22253C",
"-  c #2B283A",
";  c #3B2E34",
":  c #3C273C",
">  c #3F3135",
",  c #45293F",
"<  c #453436",
"1  c #4C3939",
"2  c #6A2536",
"3  c #1E2942",
"4  c #092F53",
"5  c #212640",
"6  c #252B44",
"7  c #2C2D43",
"8  c #3B2A40",
"9  c #3F3745",
"0  c #3E3E4F",
"q  c #273557",
"w  c #3F3F50",
"e  c #4E3C43",
"r  c #403F51",
"t  c #5D3D5E",
"y  c gray25",
"u  c #4B4049",
"i  c #52474D",
"p  c #464C5A",
"a  c #4B4B5B",
"s  c #6A4E43",
"d  c #6D5145",
"f  c #755247",
"g  c #5B5F72",
"h  c #776868",
"j  c #686B7D",
"k  c #7E7D7D",
"l  c #862736",
"z  c #9E2634",
"x  c #8F353B",
"c  c #AF2A39",
"v  c #A43738",
"b  c #D3343F",
"n  c #9F3B44",
"m  c #873F57",
"M  c #E63844",
"N  c #9B5F4B",
"B  c #AA5042",
"V  c #B35B45",
"C  c #8B654F",
"Z  c #916E58",
"A  c #AE664A",
"S  c #A26C54",
"D  c #926566",
"F  c #D54D49",
"G  c #E75C52",
"H  c #C97D54",
"J  c #B3835F",
"K  c #BB875F",
"L  c #B58461",
"P  c #BA8761",
"I  c #BE8A63",
"U  c #B58D6B",
"Y  c #BB8D7B",
"T  c #CC8057",
"R  c #C28D64",
"E  c #D79B6A",
"W  c #D99D6C",
"Q  c #C48F76",
"!  c #D29979",
"~  c #E59969",
"^  c #DDA16F",
"/  c #E6A56E",
"(  c #E5A671",
")  c #E8A773",
"_  c #0273BB",
"`  c #1678BF",
"'  c #4773A1",
"]  c #3981A8",
"[  c #2DA9F0",
"{  c #37B0F4",
"}  c #59A3CD",
"|  c #57A8D5",
" . c #B19C83",
".. c #969DAF",
"X. c #9DA4B6",
"o. c #B1ADA3",
"O. c #B4B4B4",
"+. c #CAA487",
"@. c #D6A482",
"#. c #E6B48B",
"$. c #EEBD95",
"%. c #C1B7BB",
"&. c #F3C197",
"*. c #E3C0A6",
"=. c #F0D2BE",
"-. c #BFBAC2",
";. c #B2BDCE",
":. c #9DC0DC",
">. c #B9C1CA",
",. c #BECADC",
"<. c #9BCBEC",
"1. c #B5E0FA",
"2. c #C1C1C1",
"3. c #CBC8CB",
"4. c #D9CDC8",
"5. c #D5D0CF",
"6. c #C1C7D4",
"7. c #CBCCD2",
"8. c #C0CCDE",
"9. c #CED3DE",
"0. c #D6D7DD",
"q. c #ECE3DE",
"w. c #F2E3D8",
"e. c #FCECDE",
"r. c #C2CEE0",
"t. c #C4D0E1",
"y. c #CBD6E6",
"u. c #D2D9E6",
"i. c #D4DDEB",
"p. c #C2EDFF",
"a. c #FFEFE1",
"s. c #E4EBF4",
"d. c #F1F2F5",
"f. c #F3F7FC",
"g. c #F6F9FD",
"h. c #FDFEFE",
/* pixels */
"  y y y y y y y y y y y h.h.y y   y y y u y y y y y y y y y y k ",
"y O.O.O.O.O.O.O.O.O.O.O.h.h.O.2.y O.O.O.O.O.O.O.O.O.O.O.O.O.O.>.",
"y O.O.O.O.O.O.O.O.O.,.u.d.h.O.2.y O.O.O.O.O.O.O.O.O.O.O.O.O.O.2.",
"y O.O.O.O.O.O.O.O.O.8.u.d.d.O.2.y O.O.O.O.O.O.O.O.O.O.O.O.O.O.2.",
"y O.O.O.O.O.O.O.O.O.8.u.f.0.j * 5 7 6 7 6 6 O.O.O.O.O.O.O.O.O.2.",
"y O.O.O.O.O.O.O.O.O.;.u.f.7.g 5 5 6 6 6 6 6 O.O.O.O.O.O.O.O.O.2.",
"y O.O.O.O.O.O.O.X p X.i.g.7.g 5 5 6 6 6 6 6 6 6 O.O.O.O.O.O.O.2.",
"y O.O.O.O.O.O.O.o w ..i.g.7.g 5 5 7 6 7 7 6 6 6 O.O.O.O.O.O.O.2.",
"y O.O.O.O.O.+ O O w ..i.g.7.g 5 6 6 7 6 6 6 6 7 O.O.O.O.O.O.O.2.",
"y O.O.O.O.O.+ O O u X.i.g.7.g & 5 6 6 6 6 6 5 = O.O.O.O.O.O.O.2.",
"y O.O.O.O.O.+ O O r ..i.g.3.a @ 3 6 6 6 7 5 $ # O.O.O.O.O.O.O.2.",
"y O.O.O.O.O.+ O O r ..i.g.5.h ; - = * = = & # + O.O.O.O.O.O.O.2.",
"y O.O.O.O.O.+ O O w ..i.f.q.+.C ; @ @ @ @ @ O.O.O.O.O.O.O.O.O.2.",
"y O.O.O.O.O.+ O O w ..i.f.a.&.I d < < < 1 1 O.O.O.O.O.O.O.O.O.2.",
"y O.O.O.O.O.+ O o w ..i.f.a.$.W R L J J P P O.O.O.O.O.O.O.O.O.2.",
"k 2.2.2.2.2.+ O O w ..i.f.a.$.E I R ^ ~ R J 2.2.2.2.2.2.2.2.2.h.",
"  y y y y r + O o w ..i.f.e.$.K s d R R f > y y y y y y y y y k ",
"y O.O.O.O.O.+ o o 0 ..i.f.e.$.K s s R I f < O.O.O.O.O.O.O.O.O.>.",
"y O.O.O.O.O.O.O.o w ..i.f.e.$.E P I W W P S O.O.O.O.O.O.O.O.O.2.",
"y O.O.O.O.O.O.O.. p X.i.f.e.$./ ( ( ( ( ) / O.O.O.O.O.O.O.O.O.2.",
"y O.O.O.O.O.O.O.O.O.;.u.f.e.$./ / ( ( ( ) ~ G M O.O.O.O.O.O.O.2.",
"y O.O.O.O.O.O.O.O.O.,.y.s.q.*.#.$.$.&.#.) T F b O.O.O.O.O.O.O.2.",
"y O.O.O.O.O.O.O.t.r.r.r.y.9.3.4.w.e.e.=.! F B c O.O.O.O.O.O.O.2.",
"y O.O.O.O.O.O.O.t.6.-.%.2.>.:.<.1.p.p.6. .V v z O.O.O.O.O.O.O.2.",
"y O.O.O.O.O.O.O.O.O.Y Q @.o.| [ { { [ } D V c z O.O.O.O.O.O.O.2.",
"y O.O.O.O.O.O.O.O.O.A H ~  .] _ _ _ ` ' D B x 2 O.O.O.O.O.O.O.2.",
"y O.O.O.O.O.O.O.3 e N T ~ U p 4 4 q t m B n e e O.O.O.O.O.O.O.2.",
"y O.O.O.O.O.O.O.= r f S J Z > + O % 2 l m 2 8 3 O.O.O.O.O.O.O.2.",
"y O.O.O.O.O.O.O.6 7 9 u i e 7 & $ - : , e - 7 6 O.O.O.O.O.O.O.2.",
"y O.O.O.O.O.O.O.- 6 6 3 6 5 7 6 7 6 5 6 6 6 5 6 O.O.O.O.O.O.O.2.",
"y O.O.O.O.O.O.O.O.O.6 6 3 6 5 6 6 6 6 6 6 6 O.O.O.O.O.O.O.O.O.2.",
"k 2.2.2.2.2.2.2.>.-.6 6 6 6 7 6 6 6 6 6 6 6 2.2.2.2.2.2.2.2.2.h."
};
