/* XPM */
static char *result[] = {
/* columns rows colors chars-per-pixel */
"32 32 139 2 ",
"   c black",
".  c #0E0919",
"X  c #110C1E",
"o  c #130F20",
"O  c #151122",
"+  c #191526",
"@  c #16162B",
"#  c #1B1A2D",
"$  c #1E1E32",
"%  c #351A2B",
"&  c #1E2037",
"*  c #1F233B",
"=  c #22253C",
"-  c #292539",
";  c #3B2E34",
":  c #3C273C",
">  c #45293F",
",  c #5B2E3E",
"<  c #443436",
"1  c #4A3737",
"2  c #4C3939",
"3  c #6B2231",
"4  c #68283B",
"5  c #1F2C44",
"6  c #0B3053",
"7  c #1F3752",
"8  c #212640",
"9  c #252B43",
"0  c #2A2B42",
"q  c #3B2A40",
"w  c #2F3144",
"e  c #273557",
"r  c #3F3F50",
"t  c #473C47",
"y  c #403F51",
"u  c #5D3D5E",
"i  c gray25",
"p  c #454554",
"a  c #4C4C5C",
"s  c #674B41",
"d  c #6A4E43",
"f  c #6D5145",
"g  c #725344",
"h  c #56596B",
"j  c #5B5F72",
"k  c #776868",
"l  c #686C7D",
"z  c #7E7D7D",
"x  c #862736",
"c  c #9E2634",
"v  c #8F353B",
"b  c #AF2C39",
"n  c #A43739",
"m  c #A73839",
"M  c #D4373F",
"N  c #9F3B44",
"B  c #D73D40",
"V  c #E63B44",
"C  c #8B5A4B",
"Z  c #AA5042",
"A  c #BC5043",
"S  c #B35D46",
"D  c #8B654F",
"F  c #BB6D4D",
"G  c #A06952",
"H  c #926566",
"J  c #E54647",
"K  c #C77C54",
"L  c #E77673",
"P  c #AE805F",
"I  c #B3835F",
"U  c #BB875F",
"Y  c #9A8378",
"T  c #BA8761",
"R  c #BE8A63",
"E  c #BA8D7B",
"W  c #C28D64",
"Q  c #DD9764",
"!  c #D79B6A",
"~  c #D99D6C",
"^  c #C18D76",
"/  c #D38979",
"(  c #E58464",
")  c #E19A66",
"_  c #E69772",
"`  c #DDA16F",
"'  c #E6A56E",
"]  c #E5A671",
"[  c #E7AA74",
"{  c #E9AC76",
"}  c #0273BB",
"|  c #1678BF",
" . c #2C79A5",
".. c #4773A1",
"X. c #3AB2F6",
"o. c #59A3CC",
"O. c #68B1D5",
"+. c #969DAF",
"@. c #9DA5B6",
"#. c #B4B4B4",
"$. c #D2A282",
"%. c #DEB08B",
"&. c #C1AC92",
"*. c #E9B089",
"=. c #E6B790",
"-. c #EDBD95",
";. c #C3BABD",
":. c #E0BFA6",
">. c #F3C197",
",. c #E1C0A6",
"<. c #F4C5BA",
"1. c #BEB9C1",
"2. c #B2BCCE",
"3. c #BFC9D3",
"4. c #C1C1C1",
"5. c #C9C7CA",
"6. c #C8C8CC",
"7. c #D3CAC7",
"8. c #D5D0CF",
"9. c #CBCCD2",
"0. c #C0CCDE",
"q. c #CCDADC",
"w. c #D7D7DC",
"e. c #F8D9D6",
"r. c #EDE4DE",
"t. c #F0E4DA",
"y. c #FCECDE",
"u. c #C2CEE0",
"i. c #C4D0E2",
"p. c #CCD6E6",
"a. c #D4DDEB",
"s. c #DEE4EF",
"d. c #C1EAFF",
"f. c #FAEEE1",
"g. c #E4EBF4",
"h. c #F1F1F3",
"j. c #F3F7FC",
"k. c #F6F9FD",
"l. c #FDFDFE",
/* pixels */
"  i i i i i i i i i i i l.l.i i   i i i t ; i i i i i i i i i z ",
"i #.#.#.#.#.#.#.#.#.#.#.l.h.#.4.i #.#.#.#.#.#.#.#.#.#.#.#.#.#.5.",
"i #.#.#.#.#.#.#.#.#.0.a.k.w.l = 9 9 9 9 9 e #.#.#.#.#.#.#.#.#.3.",
"i #.#.#.#.#.#.#.#.#.2.p.k.6.j = 9 9 9 9 0 9 #.#.#.#.#.#.#.#.#.4.",
"i #.#.#.#.#.#.#.X a @.a.k.9.j 8 9 9 9 9 9 0 9 9 #.#.#.#.#.#.#.4.",
"i #.#.#.#.#.#.#.o r +.a.k.9.j 8 8 9 0 9 9 9 0 9 #.#.#.#.#.#.#.4.",
"i #.#.#.#.#.+ O O r +.a.k.9.j 8 8 9 9 0 9 9 9 0 #.#.#.#.#.#.#.4.",
"i #.#.#.#.#.+ O O r +.s.k.9.h $ 8 9 9 0 9 9 9 8 #.#.#.#.#.#.#.4.",
"i #.#.#.#.#.+ + X y +.a.k.6.a @ * 9 9 9 9 = $ # #.#.#.#.#.#.#.4.",
"i #.#.#.#.#.+ O O y +.s.k.8.k < - * = * = & # O #.#.#.#.#.#.#.4.",
"i #.#.#.#.#.+ + o r +.a.j.t.$.D ; @ @ @ @ @ #.#.#.#.#.#.#.#.#.4.",
"i #.#.#.#.#.+ O O r +.a.j.f.>.W f 1 1 2 2 2 #.#.#.#.#.#.#.#.#.4.",
"i #.#.#.#.#.+ O O r +.a.j.f.-.~ W U I I I U #.#.#.#.#.#.#.#.#.4.",
"i #.#.#.#.#.+ O o y +.a.j.f.-.~ U W ` ` W I #.#.#.#.#.#.#.#.#.4.",
"i #.#.#.#.#.+ O O r +.a.j.y.-.T d f W W g < #.#.#.#.#.#.#.#.#.4.",
"z 4.4.4.4.4.+ O O r +.a.j.f.-.T s f R R f ; 4.4.4.4.4.4.4.4.4.l.",
"  i i i i i i q o r +.a.j.y.-.! U R ` ! R P i i i i i i i i i z ",
"i #.#.#.#.#.#.#.. p +.a.j.y.-.' ] ] ] ] [ { #.#.#.#.#.#.#.#.#.4.",
"i #.#.#.#.#.#.#.#.#.2.a.j.y.-.) ] ` ' ` ' [ #.#.#.#.#.#.#.#.#.4.",
"i #.#.#.#.#.#.#.#.#.0.p.g.r.:.%.=.-.>.*._ ( #.#.#.#.#.#.#.#.#.4.",
"i #.#.#.#.#.#.#.i.u.u.u.p.q.5.7.t.y.y.<.L J J V #.#.#.#.#.#.#.4.",
"i #.#.#.#.#.#.#.0.3.1.;.4.6.q.s.k.l.l.e.L B M M #.#.#.#.#.#.#.4.",
"i #.#.#.#.#.#.#.#.#.E ^ $.,.t.l.l.l.l.t./ A b b #.#.#.#.#.#.#.4.",
"i #.#.#.#.#.#.#.#.#.F K Q %.q.d.d.d.d.3.E F n c #.#.#.#.#.#.#.4.",
"i #.#.#.#.#.#.#.#.#.F K ) &.O.X.X.X.X.o.Y S m b #.#.#.#.#.#.#.4.",
"i #.#.#.#.#.#.#.#.#.C G F +. .} } } | ..H Z v 4 #.#.#.#.#.#.#.4.",
"i #.#.#.#.#.#.#.9 w t t t p 7 6 6 e u C N v , : #.#.#.#.#.#.#.4.",
"i #.#.#.#.#.#.#.9 9 9 8 * * # + + % 3 x x 4 q 5 #.#.#.#.#.#.#.4.",
"i #.#.#.#.#.#.#.9 9 9 9 9 8 = & & - : t > : 0 5 #.#.#.#.#.#.#.4.",
"i #.#.#.#.#.#.#.9 9 9 9 9 9 0 9 0 9 8 8 5 9 9 9 #.#.#.#.#.#.#.4.",
"i #.#.#.#.#.#.#.#.#.9 9 9 9 9 9 9 9 8 0 9 9 #.#.#.#.#.#.#.#.#.4.",
"z 4.4.4.4.4.4.4.4.1.9 9 9 9 9 9 9 9 9 9 9 9 4.4.4.4.4.4.4.4.4.l."
};
