/* XPM */
static char *result[] = {
/* columns rows colors chars-per-pixel */
"32 32 146 2 ",
"   c black",
".  c #110C1E",
"X  c #130F20",
"o  c #151122",
"O  c #181425",
"+  c #16162B",
"@  c #1B192C",
"#  c #1E1E32",
"$  c #351A2B",
"%  c #1E233B",
"&  c #22253C",
"*  c #2B283A",
"=  c #3B2E34",
"-  c #3C273C",
";  c #45293F",
":  c #5B2E3E",
">  c #443336",
",  c #4A3737",
"<  c #4C3939",
"1  c #6A2536",
"2  c #1E2942",
"3  c #092F53",
"4  c #212640",
"5  c #252B43",
"6  c #2C2D43",
"7  c #3B2A40",
"8  c #3F3745",
"9  c #3E3E4F",
"0  c #273557",
"q  c #3F3F50",
"w  c #4E3C43",
"e  c #403F51",
"r  c gray25",
"t  c #4B4049",
"y  c #52474D",
"u  c #464C5A",
"i  c #4C4C5C",
"p  c #674B41",
"a  c #6A4E43",
"s  c #6D5145",
"d  c #755247",
"f  c #56596B",
"g  c #5B5F72",
"h  c #776868",
"j  c #686C7D",
"k  c #7E7D7D",
"l  c #862736",
"z  c #9E2634",
"x  c #8F353B",
"c  c #AF2C39",
"v  c #A73839",
"b  c #B3373B",
"n  c #D4373F",
"m  c #9F3B44",
"M  c #873F57",
"N  c #D33640",
"B  c #D73D40",
"V  c #E63B44",
"C  c #9B5F4B",
"Z  c #AA5042",
"A  c #BC5043",
"S  c #B35D46",
"D  c #8B654F",
"F  c #916E58",
"G  c #AE664A",
"H  c #A26C54",
"J  c #926566",
"K  c #E54647",
"L  c #C97D54",
"P  c #E77673",
"I  c #AE805F",
"U  c #B3835F",
"Y  c #BB875F",
"T  c #9A8378",
"R  c #B58461",
"E  c #BA8761",
"W  c #BE8A63",
"Q  c #B58D6B",
"!  c #BB8D7B",
"~  c #CC8057",
"^  c #C28D64",
"/  c #D79B6A",
"(  c #D99D6C",
")  c #C48F76",
"_  c #D38979",
"`  c #E58464",
"'  c #E49C68",
"]  c #E69772",
"[  c #DDA16F",
"{  c #E5A46E",
"}  c #E5A670",
"|  c #E7AA74",
" . c #E9AC76",
".. c #0273BB",
"X. c #1678BF",
"o. c #4773A1",
"O. c #3981A8",
"+. c #2DA7EE",
"@. c #37AEF2",
"#. c #3AB3F6",
"$. c #59A3CC",
"%. c #57A7D3",
"&. c #B19C83",
"*. c #969DAF",
"=. c #9DA5B6",
"-. c #B1ADA2",
";. c #B4B4B4",
":. c #CAA487",
">. c #D6A482",
",. c #E9B089",
"<. c #ECBD94",
"1. c #C4BBBD",
"2. c #F3C197",
"3. c #F1CDAF",
"4. c #F4C5BA",
"5. c #9CBED9",
"6. c #BFBAC2",
"7. c #B2BDCE",
"8. c #B9C0C9",
"9. c #BFCCD8",
"0. c #9AC8E9",
"q. c #B4DDF6",
"w. c #C1C1C1",
"e. c #C8C8CC",
"r. c #D5D0CF",
"t. c #C1C7D4",
"y. c #CBCCD2",
"u. c #C0CBDD",
"i. c #D7D7DC",
"p. c #F8D9D6",
"a. c #F0E4DA",
"s. c #FBEBDE",
"d. c #C4D0E1",
"f. c #CBD6E5",
"g. c #CFD8E6",
"h. c #D1DAE7",
"j. c #D5DEEB",
"k. c #C2EAFF",
"l. c #E0E4ED",
"z. c #F9EDE0",
"x. c #FDF1E7",
"c. c #E3E9F2",
"v. c #F1F1F3",
"b. c #F2F6FB",
"n. c #F6F9FD",
"m. c #FDFDFE",
/* pixels */
"  r r r r r r r < r r r m.m.r r   r r r e w r r r r r r r r r k ",
"r ;.;.;.;.;.;.;.;.;.;.;.m.v.;.w.r ;.;.;.;.;.;.;.;.;.;.;.;.;.;.w.",
"r ;.;.;.;.;.;.;.;.;.u.j.n.i.j % 5 5 5 5 5 5 ;.;.;.;.;.;.;.;.;.w.",
"r ;.;.;.;.;.;.;.;.;.7.h.b.y.g 2 5 5 5 5 5 5 ;.;.;.;.;.;.;.;.;.w.",
"r ;.;.;.;.;.;.;.. u =.j.n.y.g 4 4 6 6 5 5 5 6 5 ;.;.;.;.;.;.;.w.",
"r ;.;.;.;.;.;.;.X 9 *.j.n.y.g 4 4 5 5 5 6 5 5 5 ;.;.;.;.;.;.;.w.",
"r ;.;.;.;.;.O o o 9 =.j.n.y.g 4 5 5 5 5 5 5 5 5 ;.;.;.;.;.;.;.w.",
"r ;.;.;.;.;.O o X e *.j.n.y.f % & 5 5 6 5 5 5 4 ;.;.;.;.;.;.;.w.",
"r ;.;.;.;.;.O o o e *.j.n.e.i @ & 5 5 5 5 & # @ ;.;.;.;.;.;.;.w.",
"r ;.;.;.;.;.O O X e =.j.n.r.h = * & & & & % @ o ;.;.;.;.;.;.;.w.",
"r ;.;.;.;.;.O o . e *.j.n.a.:.D = + + + + @ ;.;.;.;.;.;.;.;.;.w.",
"r ;.;.;.;.;.O o o e *.j.n.s.2.^ s > > , < < ;.;.;.;.;.;.;.;.;.w.",
"r ;.;.;.;.;.O o o e *.j.b.z.<.( ^ U U U E E ;.;.;.;.;.;.;.;.;.w.",
"r ;.;.;.;.;.O o o e *.j.b.z.<.( Y ^ [ { ^ U ;.;.;.;.;.;.;.;.;.w.",
"r ;.;.;.;.;.O o o q *.j.b.z.<.E a s ^ ^ s > ;.;.;.;.;.;.;.;.;.w.",
"k w.w.w.w.w.O o . t *.j.b.z.2.E p s W W s = w.w.w.w.w.w.w.w.w.m.",
"  r r r r r > e X q *.j.b.s.<./ E E ( ( E I r r r r r r r r r k ",
"r ;.;.;.;.;.;.;.. u =.h.b.s.,.{ { | } } |  .;.;.;.;.;.;.;.;.;.w.",
"r ;.;.;.;.;.;.;.;.;.7.h.b.s.<.{ { } } } | | ;.;.;.;.;.;.;.;.;.w.",
"r ;.;.;.;.;.;.;.;.;.9.f.b.x.3.<.<.<.<.,.] ` ;.;.;.;.;.;.;.;.;.w.",
"r ;.;.;.;.;.;.;.;.;.9.g.b.m.x.s.a.z.s.4.P K K V ;.;.;.;.;.;.;.w.",
"r ;.;.;.;.;.;.;.;.;.9.f.c.b.v.n.m.m.m.p.P B n N ;.;.;.;.;.;.;.w.",
"r ;.;.;.;.;.;.;.u.9.9.d.f.h.h.l.n.m.m.a._ A b c ;.;.;.;.;.;.;.w.",
"r ;.;.;.;.;.;.;.d.t.6.6.1.8.5.0.q.k.k.t.! S v z ;.;.;.;.;.;.;.w.",
"r ;.;.;.;.;.;.;.;.;.! ) >.-.%.+.@.#.#.$.T S v c ;.;.;.;.;.;.;.w.",
"r ;.;.;.;.;.;.;.;.;.G L ' &.O.....X.X.o.J Z x 1 ;.;.;.;.;.;.;.w.",
"r ;.;.;.;.;.;.;.% t C ~ ' Q u 3 3 0 y M m x : 7 ;.;.;.;.;.;.;.w.",
"r ;.;.;.;.;.;.;.& e d H R F > O + $ 1 l l 1 7 2 ;.;.;.;.;.;.;.w.",
"r ;.;.;.;.;.;.;.5 6 8 t y t * & % * - ; ; 7 5 5 ;.;.;.;.;.;.;.w.",
"r ;.;.;.;.;.;.;.5 * 5 2 4 5 5 5 5 5 5 5 5 5 5 5 ;.;.;.;.;.;.;.w.",
"r ;.;.;.;.;.;.;.;.;.5 5 4 5 5 5 5 5 5 4 5 5 ;.;.;.;.;.;.;.;.;.w.",
"k w.w.w.w.w.w.w.w.8.5 5 5 5 5 5 5 5 5 5 5 5 w.w.w.w.w.w.w.w.w.m."
};
