/* XPM */
static char *result[] = {
/* columns rows colors chars-per-pixel */
"32 32 145 2 ",
"   c black",
".  c #0F0C1C",
"X  c #120D1E",
"o  c #130F20",
"O  c #151021",
"+  c #191526",
"@  c #16162B",
"#  c #1B1A2D",
"$  c #1E1E32",
"%  c #351A2B",
"&  c #1E2037",
"*  c #1F233B",
"=  c #22253C",
"-  c #292539",
";  c #3B2E34",
":  c #3C273C",
">  c #3F3135",
",  c #45293F",
"<  c #5B2E3E",
"1  c #463536",
"2  c #4A3737",
"3  c #4C3939",
"4  c #6B2231",
"5  c #68283B",
"6  c #1F2C44",
"7  c #0B3053",
"8  c #1F3752",
"9  c #212640",
"0  c #252B43",
"q  c #2A2B42",
"w  c #3B2A40",
"e  c #2F3144",
"r  c #3D3D4E",
"t  c #273557",
"y  c #3F3F50",
"u  c #473C47",
"i  c #403F51",
"p  c #5D3D5E",
"a  c gray25",
"s  c #53464C",
"d  c #484958",
"f  c #674B40",
"g  c #6A4E43",
"h  c #6D5145",
"j  c #725344",
"k  c #56596B",
"l  c #5B5F72",
"z  c #5F6273",
"x  c #776868",
"c  c #686B7D",
"v  c #7E7D7D",
"b  c #862736",
"n  c #802738",
"m  c #9E2634",
"M  c #8F353B",
"N  c #AF2A39",
"B  c #A43738",
"V  c #A73839",
"C  c #B33E3E",
"Z  c #D3343F",
"A  c #9F3B44",
"S  c #E63844",
"D  c #8B5A4B",
"F  c #AA5042",
"G  c #B35B45",
"H  c #8B654F",
"J  c #BC654D",
"K  c #BB6D4D",
"L  c #A06952",
"P  c #B27F5E",
"I  c #926566",
"U  c #D54D49",
"Y  c #E75C52",
"T  c #C77C54",
"R  c #D77F5E",
"E  c #B3835F",
"W  c #BB865E",
"Q  c #8B847B",
"!  c #9A8278",
"~  c #B68560",
"^  c #BA8761",
"/  c #BE8A63",
"(  c #BA8D7B",
")  c #C28D64",
"_  c #DD9764",
"`  c #D79B69",
"'  c #D99D6C",
"]  c #C18D76",
"[  c #D29979",
"{  c #E59769",
"}  c #DFA475",
"|  c #E5A56E",
" . c #E5A671",
".. c #E6AA75",
"X. c #0273BB",
"o. c #1678BF",
"O. c #2C79A5",
"+. c #4773A1",
"@. c #3BB3F7",
"#. c #38B4F9",
"$. c #59A3CD",
"%. c #68B1D5",
"&. c #969DAE",
"*. c #989FB0",
"=. c #9EA6B8",
"-. c #A1AABB",
";. c #B4B4B4",
":. c #CAA487",
">. c #DEAC83",
",. c #C1AC92",
"<. c #E9B68B",
"1. c #E0B893",
"2. c #EFBE95",
"3. c #F0BF95",
"4. c #CFBAAD",
"5. c #C3BABD",
"6. c #E0BFA6",
"7. c #F3C197",
"8. c #E5C2A8",
"9. c #F0D2BE",
"0. c #B2BDCE",
"q. c #C0BAC2",
"w. c #BECADC",
"e. c #C1C1C1",
"r. c #C8C7CD",
"t. c #C9C8CC",
"y. c #D5D0CF",
"u. c #CBCCD2",
"i. c #C2CAD9",
"p. c #CDD7DE",
"a. c #D8D6D9",
"s. c #EDE4DF",
"d. c #FCECDF",
"f. c #C6D2E4",
"g. c #CED6E4",
"h. c #D2D9E6",
"j. c #D5DEEB",
"k. c #C1EBFF",
"l. c #FEEFE3",
"z. c #E6EDF6",
"x. c #F1F2F5",
"c. c #F8F5F5",
"v. c #F3F6FC",
"b. c #F6F9FD",
"n. c #FDFEFE",
/* pixels */
"  a a a a a a a u a a a n.n.a a   a a a a a a a a a a a a a a +.",
"a ;.;.;.;.;.;.;.;.;.;.;.n.n.;.e.a ;.;.;.;.;.;.;.;.;.;.;.;.;.;.8.",
"a ;.;.;.;.;.;.;.;.;.w.j.x.n.;.e.a ;.;.;.;.;.;.;.;.;.;.;.;.;.;.t.",
"a ;.;.;.;.;.;.;.;.;.i.g.x.x.;.e.a ;.;.;.;.;.;.;.;.;.;.;.;.;.;.e.",
"a ;.;.;.;.;.;.;.;.;.w.g.v.a.c * = 0 0 q 0 0 ;.;.;.;.;.;.;.;.;.e.",
"a ;.;.;.;.;.;.;.;.;.0.j.v.u.l 9 0 0 q 0 0 0 ;.;.;.;.;.;.;.;.;.e.",
"a ;.;.;.;.;.;.;.X d =.j.v.u.l 9 0 0 0 0 0 0 q 0 ;.;.;.;.;.;.;.e.",
"a ;.;.;.;.;.;.;.O y &.j.b.u.l = 0 0 0 0 0 0 0 q ;.;.;.;.;.;.;.e.",
"a ;.;.;.;.;.+ O O i &.j.b.u.z 6 0 0 0 0 0 q 0 0 ;.;.;.;.;.;.;.e.",
"a ;.;.;.;.;.+ O O i *.j.b.u.k * 9 q 0 0 0 0 = = ;.;.;.;.;.;.;.e.",
"a ;.;.;.;.;.+ O X r &.j.b.t.d @ 6 0 0 q q 0 $ # ;.;.;.;.;.;.;.e.",
"a ;.;.;.;.;.+ O O d *.j.n.y.x ; - * * * * & # + ;.;.;.;.;.;.;.e.",
"a ;.;.;.;.;.+ + O y &.j.v.s.:.H ; @ @ @ @ @ ;.;.;.;.;.;.;.;.;.e.",
"a ;.;.;.;.;.+ O O i &.j.v.d.7.) j 1 1 2 3 3 ;.;.;.;.;.;.;.;.;.e.",
"a ;.;.;.;.;.+ O o i &.j.v.d.2.' ) ~ ~ ~ W ~ ;.;.;.;.;.;.;.;.;.e.",
"v e.e.e.e.e.+ O O i &.j.b.d.2.` / ) ' ' ) W e.e.e.e.e.e.e.e.e.n.",
"  a a a a > + O o y &.j.v.d.3.W g h ) ) h 1 a a a a a a a a a +.",
"a ;.;.;.;.;.+ O X r &.j.v.l.3.W f g / ) g ; ;.;.;.;.;.;.;.;.;.8.",
"a ;.;.;.;.;.;.;.. r &.j.v.d.2.` ^ ^ ' ' / P ;.;.;.;.;.;.;.;.;.e.",
"a ;.;.;.;.;.;.;.i l =.j.z.s.6.>... . ..... .;.;.;.;.;.;.;.;.;.e.",
"a ;.;.;.;.;.;.;.*.-.0.f.h.p.t.4.>. .| | ..{ Y S ;.;.;.;.;.;.;.e.",
"a ;.;.;.;.;.;.;.f.i.q.5.0.r.p.y.8.2.2.<. .R U Z ;.;.;.;.;.;.;.e.",
"a ;.;.;.;.;.;.;.;.;.( ] } 6.s.c.l.l.d.9.[ J C N ;.;.;.;.;.;.;.e.",
"a ;.;.;.;.;.;.;.;.;.J T _ 1.p.k.k.k.k.i.( G B m ;.;.;.;.;.;.;.e.",
"a ;.;.;.;.;.;.;.;.;.K T { ,.%.@.@.@.#.$.! J V m ;.;.;.;.;.;.;.e.",
"a ;.;.;.;.;.;.;.;.;.D L E Q O.X.X.X.o.+.I F M n ;.;.;.;.;.;.;.e.",
"a ;.;.;.;.;.;.;.0 e r s s d 8 7 7 t p D A M < w ;.;.;.;.;.;.;.e.",
"a ;.;.;.;.;.;.;.0 0 = 9 6 & # + O % 4 b n 5 w 6 ;.;.;.;.;.;.;.e.",
"a ;.;.;.;.;.;.;.q 0 9 0 9 0 = * & - u : , : 0 6 ;.;.;.;.;.;.;.e.",
"a ;.;.;.;.;.;.;.0 0 0 0 0 0 q 0 0 0 9 9 0 0 0 0 ;.;.;.;.;.;.;.e.",
"a ;.;.;.;.;.;.;.;.;.0 0 0 0 q 0 0 0 9 0 0 0 ;.;.;.;.;.;.;.;.;.e.",
"v e.e.e.e.e.e.e.q.q.0 0 0 0 0 0 0 0 0 0 q q e.e.e.e.e.e.e.e.e.n."
};
