/* XPM */
static char *result[] = {
/* columns rows colors chars-per-pixel */
"32 32 138 2 ",
"   c black",
".  c #0F0C1E",
"X  c #110E1F",
"o  c #0F0E22",
"O  c #120F21",
"+  c #151123",
"@  c #181425",
"#  c #1F1825",
"$  c #1B192C",
"%  c #1D1E34",
"&  c #221C29",
"*  c #341A2B",
"=  c #392A2E",
"-  c #202137",
";  c #23263D",
":  c #2A253A",
">  c #25283F",
",  c #3C2E33",
"<  c #3A283E",
"1  c #3D3139",
"2  c #42293F",
"3  c #463434",
"4  c #493636",
"5  c #4A3A39",
"6  c #682334",
"7  c #172C49",
"8  c #13375B",
"9  c #252B44",
"0  c #2C2C41",
"q  c #2C324B",
"w  c #393448",
"e  c #153F65",
"r  c #3E455D",
"t  c #19446C",
"y  c gray25",
"u  c #524047",
"i  c #4F4D5B",
"p  c #524F5C",
"a  c #53515F",
"s  c #714C42",
"d  c #6D534A",
"f  c #785048",
"g  c #57596B",
"h  c #535A72",
"j  c #726167",
"k  c #796A69",
"l  c #7E7D7D",
"z  c #812738",
"x  c #9D2634",
"c  c #AF2C39",
"v  c #A23739",
"b  c #A5383B",
"n  c #AA393A",
"m  c #B3373B",
"M  c #D33640",
"N  c #D63B42",
"B  c #E63B44",
"V  c #AF5345",
"C  c #AF5C46",
"Z  c #BC5044",
"A  c #B75D46",
"S  c #8B644B",
"D  c #9F634E",
"F  c #8D6A52",
"G  c #B16B4F",
"H  c #BA6D4C",
"J  c #BA7050",
"K  c #BF7659",
"L  c #B27F5A",
"P  c #BF7B5A",
"I  c #876061",
"U  c #E84349",
"Y  c #E94F4D",
"T  c #DB6153",
"R  c #DF635A",
"E  c #C37A5D",
"W  c #B2815C",
"Q  c #BB8868",
"!  c #B88370",
"~  c #BA8A7A",
"^  c #BA9376",
"/  c #C68D72",
"(  c #C98D70",
")  c #D18471",
"_  c #EF8B67",
"`  c #065F9B",
"'  c #2B6D9D",
"]  c #0076BD",
"[  c #517393",
"{  c #7A7F90",
"}  c #0279C1",
"|  c #7C859A",
" . c #3DB3F5",
".. c #3CB4F8",
"X. c #439FD6",
"o. c #60ACD9",
"O. c #A99D9B",
"+. c #B4B4B4",
"@. c #BCB4BB",
"#. c #CBA487",
"$. c #CBA08E",
"%. c #EBA385",
"&. c #C6B5AC",
"*. c #C7B6B3",
"=. c #CAB9B4",
"-. c #E6BFA1",
";. c #F3C096",
":. c #F3C399",
">. c #E8C7AC",
",. c #E3C6B7",
"<. c #EFCEBE",
"1. c #A3AEC1",
"2. c #BDB8C1",
"3. c #B7BECC",
"4. c #BCC5D5",
"5. c #C1C1C1",
"6. c #C7C7CB",
"7. c #C8C7CB",
"8. c #CCCCD1",
"9. c #C1CCDC",
"0. c #D6D1D0",
"q. c #D5D7DC",
"w. c #EFD7C8",
"e. c #F1E4DA",
"r. c #FFEEDF",
"t. c #C4CFE0",
"y. c #CCD6E3",
"u. c #D4DDE9",
"i. c #C4E4F8",
"p. c #C1EAFF",
"a. c #CDE9F8",
"s. c #E5E4E5",
"d. c #EFE7E1",
"f. c #FFF1E3",
"g. c #EBEEF2",
"h. c #EDF2FA",
"j. c #F2F5F9",
"k. c #FEFEFE",
/* pixels */
"  y y y y y y y w y y y y y y y   y y y r 5 4.4.y y r 3 y y y l ",
"y +.+.+.+.+.+.+.+.+.+.+.+.+.+.5.y +.+.+.+.+.4.t.+.+.+.+.+.+.+.5.",
"y +.+.+.+.+.+.+.+.+.+.+.+.+.+.5.y +.+.+.+.+.4.y.j.k.+.+.+.+.+.5.",
"y +.+.+.+.+.+.+.+.+.+.@.+.+.+.5.y +.+.+.+.+.3.u.j.k.+.+.+.+.+.5.",
"y +.+.+.+.+.+.+.+.+.9 9 9 9 0 9 9 9 9 9 9 h 1.u.j.k.+.+.+.+.+.5.",
"y +.+.+.+.+.+.+.+.+.9 9 9 9 9 9 9 9 9 0 9 r | 3.g.k.+.+.+.+.+.5.",
"y +.+.+.+.+.+.+.9 9 9 9 q 9 9 9 9 9 9 9 9 q r { q.k.+.+.+.+.+.5.",
"y +.+.+.+.+.+.+.: 9 9 9 9 9 9 9 9 9 9 9 9 ; % g 6.k.+.+.+.+.+.5.",
"y +.+.+.+.+.+.+.$ % ; 9 9 9 9 9 9 9 9 9 9 ; # a 6.k.+.+.+.+.+.5.",
"y +.+.+.+.+.+.+.@ $ - > 9 9 9 9 9 9 9 9 > % + p 6.k.+.+.+.+.+.5.",
"y +.+.+.+.+.+.+.@ @ $ % > 9 9 9 9 q 9 > % @ X p 6.k.+.+.+.+.+.5.",
"y +.+.+.+.+.+.+.@ @ + $ - ; > > ; ; ; % $ + X a 6.k.+.+.+.+.+.5.",
"y +.+.+.+.+.+.+.@ @ + @ $ $ $ $ $ $ $ $ @ X X a 7.k.+.+.+.+.+.5.",
"y +.+.+.+.+.+.+.@ @ @ @ @ @ + @ @ @ + @ @ @ X a 7.k.+.+.+.+.+.5.",
"y +.+.+.+.+.+.+.# @ @ @ @ @ @ @ @ @ @ @ @ X X a 7.k.+.+.+.+.+.5.",
"l 5.5.5.5.5.5.5.+ @ @ @ @ @ @ @ @ @ @ @ @ X X p 7.k.5.5.5.5.5.k.",
"  y y y y y y y + + @ @ @ @ @ @ @ @ @ @ @ + . i 6.k.y y y y y l ",
"y +.+.+.+.+.+.+.5 , & + @ + + + O @ @ O + # = k 0.k.+.+.+.+.+.5.",
"y +.+.+.+.+.+.+.Q F = O X + + + O + O O o , S #.e.k.+.+.+.+.+.5.",
"y +.+.+.+.+.+.+._ E s 3 4 4 4 4 4 4 4 4 3 d ^ >.d.h.+.+.+.+.+.5.",
"y +.+.+.+.+.B U Y T P W W W W W Q L W W W ^ &.8.y.y.t.9.+.+.+.5.",
"y +.+.+.+.+.M M N R %.:.;.-.;.;.-.-.;.;.:.:.=.@.@.2.4.4.+.+.+.5.",
"y +.+.+.+.+.c m Z ) <.f.f.r.r.r.r.r.r.r.f.w.$.! ! ~ +.+.+.+.+.5.",
"y +.+.+.+.+.x v C / ,.s.a.p.p.p.i.i.p.i.t.*.Q H H H +.+.+.+.+.5.",
"y +.+.+.+.+.x v A K ( O.o... . . .....X.[ j D E H H +.+.+.+.+.5.",
"y +.+.+.+.+.x b V G A I ' ] } ] } } } ` 8 3 f D G J +.+.+.+.+.5.",
"y +.+.+.+.+.+.+.n n Z 6 q 8 e t t t 8 7 7 : w u +.+.+.+.+.+.+.5.",
"y +.+.+.+.+.+.+.z z z 6 * $ - 9 > - $ & ; 9 > 7 +.+.+.+.+.+.+.5.",
"r +.+.+.+.+.+.+.1 < 2 < : ; > > > > ; ; > 9 9 9 +.+.+.+.+.+.+.5.",
"5 +.+.+.+.+.+.+.9 9 9 9 9 9 9 9 9 9 9 > 9 9 9 9 +.+.+.+.+.+.+.5.",
"y +.+.+.+.+.+.+.+.+.9 9 9 9 9 9 > 9 9 9 9 9 +.+.+.+.+.+.+.+.+.5.",
"l 5.5.5.5.5.5.5.5.5.9 9 9 > 9 9 9 9 9 9 9 9 5.5.5.5.5.5.5.5.5.k."
};
