/* XPM */
static char *result[] = {
/* columns rows colors chars-per-pixel */
"32 32 142 2 ",
"   c black",
".  c #0F0C1E",
"X  c #110E1F",
"o  c #0F0E22",
"O  c #120F21",
"+  c #151123",
"@  c #181425",
"#  c #1F1825",
"$  c #17172C",
"%  c #1B192C",
"&  c #1D1E34",
"*  c #221C29",
"=  c #341A2B",
"-  c #392A2E",
";  c #202137",
":  c #23263D",
">  c #2A253A",
",  c #25283F",
"<  c #3C2E33",
"1  c #3A283E",
"2  c #3D3033",
"3  c #42293F",
"4  c #463434",
"5  c #493636",
"6  c #46363F",
"7  c #4A3A39",
"8  c #682334",
"9  c #192844",
"0  c #102D4E",
"q  c #0D355A",
"w  c #12375B",
"e  c #252B44",
"r  c #2D2F44",
"t  c #2C324B",
"y  c #3F3745",
"u  c #33324C",
"i  c #153F65",
"p  c #443945",
"a  c #3E455D",
"s  c #19446C",
"d  c gray25",
"f  c #40475E",
"g  c #4F4D5B",
"h  c #524F5C",
"j  c #53515F",
"k  c #714C42",
"l  c #6D5349",
"z  c #78524B",
"x  c #57596B",
"c  c #535A72",
"v  c #72676F",
"b  c #796A69",
"n  c #7E7D7D",
"m  c #812738",
"M  c #9D2634",
"N  c #81353F",
"B  c #AF2C39",
"V  c #A23739",
"C  c #A5383B",
"Z  c #AA393A",
"A  c #B3373B",
"S  c #D33640",
"D  c #D63B42",
"F  c #E63B44",
"G  c #965D4A",
"H  c #AF5345",
"J  c #BC5044",
"K  c #B75D46",
"L  c #B15E49",
"P  c #8B644B",
"I  c #9D634E",
"U  c #8D6A52",
"Y  c #AF6B4F",
"T  c #BA6E4D",
"R  c #BE704F",
"E  c #BA7050",
"W  c #BF7659",
"Q  c #B97D5A",
"!  c #A37B70",
"~  c #E9494B",
"^  c #DD6257",
"/  c #C37A5D",
"(  c #B2815C",
")  c #B78A63",
"_  c #BC8671",
"`  c #BA8A7A",
"'  c #BA9275",
"]  c #C68D72",
"[  c #C98D70",
"{  c #D18471",
"}  c #EF8B67",
"|  c #055F9B",
" . c #2B6D9D",
".. c #517392",
"X. c #7A7F90",
"o. c #0279C1",
"O. c #7C859A",
"+. c #3DB3F5",
"@. c #3CB4F8",
"#. c #439ED6",
"$. c #60ACD9",
"%. c #A99D9B",
"&. c #B4B4B4",
"*. c #BDB4B9",
"=. c #CAA487",
"-. c #EBA385",
";. c #C4B3A9",
":. c #F3C096",
">. c #F3C399",
",. c #E9C7AB",
"<. c #E3C6B7",
"1. c #EFCEBE",
"2. c #A3AEC1",
"3. c #BDB8C1",
"4. c #B7BECC",
"5. c #BCC5D5",
"6. c #C1C1C1",
"7. c #C7C7CB",
"8. c #C9C8CD",
"9. c #CACBD0",
"0. c #C1CCDD",
"q. c #D5D0D0",
"w. c #DAD5D5",
"e. c #D5D7DC",
"r. c #F0E3DA",
"t. c #FFEEDF",
"y. c #C2D0E3",
"u. c #CCD6E3",
"i. c #CAD7E8",
"p. c #D4DDE9",
"a. c #C9E6F7",
"s. c #C1EAFF",
"d. c #E5E4E5",
"f. c #F1E8E2",
"g. c #FDEFE3",
"h. c #FFF1E3",
"j. c #E4EBF4",
"k. c #EBEEF2",
"l. c #EDF2F7",
"z. c #F4F3F3",
"x. c #F2F5F9",
"c. c #FEFEFE",
/* pixels */
"  d d d d d d d y p d d d d d d   d d d y a 5.5.d d d d d d d n ",
"d &.&.&.&.&.&.&.&.&.&.&.&.&.&.6.d &.&.&.&.&.9.0.&.&.&.&.&.&.&.6.",
"d &.&.&.&.&.&.&.&.&.&.&.&.&.&.6.d &.&.&.&.&.0.i.l.c.&.&.&.&.&.6.",
"d &.&.&.&.&.&.&.&.&.&.*.&.&.&.6.d &.&.&.&.&.4.p.x.c.&.&.&.&.&.6.",
"d &.&.&.&.&.&.&.&.&.e e r e r e e e e e : c 2.p.x.c.&.&.&.&.&.6.",
"d &.&.&.&.&.&.&.&.&.e e e e e e e e e e e f O.4.k.c.&.&.&.&.&.6.",
"d &.&.&.&.&.&.&.e e e e e e e e e e e e e t a X.e.c.&.&.&.&.&.6.",
"d &.&.&.&.&.&.&.: e e e e e e e e e e e e : & x 8.c.&.&.&.&.&.6.",
"d &.&.&.&.&.&.&.% & : e e e e e e e e e e ; # j 7.c.&.&.&.&.&.6.",
"d &.&.&.&.&.&.&.@ % ; , e e e e e e e e e & @ h 7.c.&.&.&.&.&.6.",
"d &.&.&.&.&.&.&.@ @ % & , e e e e e e e & @ X h 7.c.&.&.&.&.&.6.",
"d &.&.&.&.&.&.&.# + + % ; , , , : , , & % O X j 7.c.&.&.&.&.&.6.",
"d &.&.&.&.&.&.&.@ @ + @ % % % % % % % % @ O X h 7.c.&.&.&.&.&.6.",
"d &.&.&.&.&.&.&.@ @ @ @ @ @ + @ @ @ @ @ @ + O j 7.c.&.&.&.&.&.6.",
"d &.&.&.&.&.&.&.@ @ @ @ @ @ @ @ @ @ @ @ @ + X j 8.c.&.&.&.&.&.6.",
"n 6.6.6.6.6.6.6.@ @ @ @ @ @ @ @ @ @ @ @ @ O X h 7.c.6.6.6.6.6.c.",
"  d d d d 2 a 6 + + + @ @ @ @ @ @ @ @ @ @ O . g 7.c.d d d d d n ",
"d &.&.&.&.&.&.&.7 < * + + @ + + O @ @ O + # - b q.c.&.&.&.&.&.6.",
"d &.&.&.&.&.&.&.) U < o o + + + + O O O o < P =.r.c.&.&.&.&.&.6.",
"d &.&.&.&.&.&.&.} / k 4 4 5 5 5 6 5 5 5 5 l ' ,.h.c.&.&.&.&.&.6.",
"d &.&.&.&.&.F ~ ~ ^ Q ( ) ) ( ( Q ( ) ( ( ' ;.w.z.c.&.&.&.&.&.6.",
"d &.&.&.&.&.S S D ^ -.>.>.-.:.:.:.:.>.-.>.,.9.i.j.l.&.&.&.&.&.6.",
"d &.&.&.&.&.B A J { 1.h.g.t.t.g.g.t.t.t.h.f.u.y.u.u.y.0.&.&.&.6.",
"d &.&.&.&.&.M V Y ] <.d.a.s.s.s.s.s.s.a.u.7.*.*.*.3.5.5.&.&.&.6.",
"d &.&.&.&.&.M C L W [ %.$.@.@.+.+.+.@.#...v ! _ _ ` &.&.&.&.&.5.",
"d &.&.&.&.&.M C H T K U  .o.o.o.o.o.o.| w 5 G T T T &.&.&.&.&.;.",
"d &.&.&.&.&.&.&.Z Z A 8 u q i i s i w 0 9 p I / R T &.&.&.&.&.6.",
"d &.&.&.&.&.&.&.m m N 8 = $ ; e e : * % ; p z I Y E &.&.&.&.&.6.",
"d &.&.&.&.&.&.&.3 3 3 1 > : , , , , : : e r y d &.&.&.&.&.&.&.6.",
"d &.&.&.&.&.&.&.e 9 e e e e e e e e e e e e 9 , &.&.&.&.&.&.&.6.",
"d &.&.&.&.&.&.&.&.&.e e e e e e e e , e e e &.&.&.&.&.&.&.&.&.6.",
"n 6.6.6.6.6.6.6.6.6.e e , e e , e e e e e e 6.6.6.6.6.6.6.6.6.c."
};
