/* XPM */
static char *result[] = {
/* columns rows colors chars-per-pixel */
"32 32 136 2 ",
"   c black",
".  c #110E1F",
"X  c #0F0E22",
"o  c #120F21",
"O  c #151123",
"+  c #181425",
"@  c #1F1825",
"#  c #17172C",
"$  c #1B192C",
"%  c #1D1E34",
"&  c #231C29",
"*  c #341A2B",
"=  c #392A2E",
"-  c #202137",
";  c #23263D",
":  c #2A253A",
">  c #25283F",
",  c #3A283E",
"<  c #3F3034",
"1  c #42293F",
"2  c #463434",
"3  c #493636",
"4  c #4A383C",
"5  c #682334",
"6  c #192844",
"7  c #102D4E",
"8  c #0D355A",
"9  c #12375B",
"0  c #252B44",
"q  c #2D2F44",
"w  c #2C324B",
"e  c #3F3745",
"r  c #33324C",
"t  c #153F65",
"y  c #443945",
"u  c #3E445D",
"i  c #19446C",
"p  c gray25",
"a  c #4F4D5B",
"s  c #524F5C",
"d  c #694F42",
"f  c #78524B",
"g  c #57596B",
"h  c #545C72",
"j  c #76686C",
"k  c #7E7D7D",
"l  c #812738",
"z  c #9D2634",
"x  c #AF2C39",
"c  c #A23739",
"v  c #A5383B",
"b  c #AA393A",
"n  c #B3373B",
"m  c #D4383F",
"M  c #E5333E",
"N  c #D73F41",
"B  c #E63741",
"V  c #E63C45",
"C  c #965D4A",
"Z  c #AF5846",
"A  c #B75847",
"S  c #B75D46",
"D  c #8B644B",
"F  c #9D634E",
"G  c #8F6952",
"H  c #AF6B4F",
"J  c #BA6E4D",
"K  c #BE704F",
"L  c #BA7050",
"P  c #B97D5A",
"I  c #876061",
"U  c #A37B70",
"Y  c #EC6D71",
"T  c #E37474",
"R  c #B3815C",
"E  c #BA8963",
"W  c #BC8671",
"Q  c #BA8A7A",
"!  c #BA9275",
"~  c #C98C6E",
"^  c #C68D71",
"/  c #D28A79",
"(  c #F2B379",
")  c #055F9B",
"_  c #2B6D9D",
"`  c #0076BD",
"'  c #507190",
"]  c #7A7F90",
"[  c #0279C1",
"{  c #7C859A",
"}  c #3CB2F4",
"|  c #429DD3",
" . c #5FABD7",
".. c #A89C99",
"X. c #B4B4B4",
"o. c #BDB4B9",
"O. c #CAA487",
"+. c #EFBF96",
"@. c #F0B590",
"#. c #C4B3A9",
"$. c #C1BABF",
"%. c #EFC096",
"&. c #E7C5AA",
"*. c #E2C4B5",
"=. c #A4AFC1",
"-. c #BDB8C1",
";. c #B7BFCD",
":. c #BCC6D6",
">. c #C1C1C1",
",. c #C7C7CB",
"<. c #C9C8CC",
"1. c #CACBD0",
"2. c #C2CDDD",
"3. c #CAD3DD",
"4. c #D5D0D0",
"5. c #D9D5D5",
"6. c #F7C9C0",
"7. c #F7D5D6",
"8. c #F2DDD9",
"9. c #F0E3DA",
"0. c #FBECDE",
"q. c #C2CFE1",
"w. c #CBD5E4",
"e. c #CFD9E7",
"r. c #CED9E8",
"t. c #D1DBE9",
"y. c #CDE7F5",
"u. c #C3E5F8",
"i. c #C1E7FD",
"p. c #E5E2E2",
"a. c #FBEFE2",
"s. c #E7EBF1",
"d. c #EDF2F7",
"f. c #F4F5F7",
"g. c #F1F4F9",
"h. c #FFFFFF",
/* pixels */
"  p p p p p p p y u 2 p p p p p   p p p < u 2.:.p p p p p p p k ",
"p X.X.X.X.X.X.X.X.X.X.X.X.X.X.>.p X.X.X.X.X.:.3.X.X.X.X.X.X.X.>.",
"p X.X.X.X.X.X.X.X.X.0 0 0 0 0 0 0 0 0 0 ; h =.e.d.h.X.X.X.X.X.>.",
"p X.X.X.X.X.X.X.X.X.0 0 0 0 0 0 0 0 0 0 0 u { ;.s.h.X.X.X.X.X.>.",
"p X.X.X.X.X.X.X.0 0 0 0 0 0 0 0 0 0 0 0 0 w u ] 5.h.X.X.X.X.X.>.",
"p X.X.X.X.X.X.X.: : 0 0 0 0 0 0 0 0 0 0 0 0 % g 1.h.X.X.X.X.X.>.",
"p X.X.X.X.X.X.X.$ % 0 0 0 0 0 0 q 0 0 0 0 - # g ,.h.X.X.X.X.X.>.",
"p X.X.X.X.X.X.X.+ $ - 0 0 0 0 0 0 0 0 0 > % + a ,.h.X.X.X.X.X.>.",
"p X.X.X.X.X.X.X.+ + $ % 0 0 0 0 0 0 0 > % + o s ,.h.X.X.X.X.X.>.",
"p X.X.X.X.X.X.X.+ + + $ - ; ; ; > ; ; - @ O . s ,.h.X.X.X.X.X.>.",
"p X.X.X.X.X.X.X.+ + + + $ $ $ # $ $ $ $ + + o s <.h.X.X.X.X.X.>.",
"p X.X.X.X.X.X.X.+ + + + + + + + + + + + + o o s <.h.X.X.X.X.X.>.",
"p X.X.X.X.X.X.X.+ + + + + + + + + + + + + o o s ,.h.X.X.X.X.X.>.",
"p X.X.X.X.X.X.X.+ + + + + + + + + + + + + o . s ,.h.X.X.X.X.X.>.",
"p X.X.X.X.X.X.X.O O O + + + + + + + + + + o . a ,.h.X.X.X.X.X.>.",
"k >.>.>.>.>.>.>.3 2 & O O O O O O O + + o @ = j 4.h.>.>.>.>.>.h.",
"  p p p p p u < E G < X o O O O O O O X X = D O.9.h.u 2 p p p k ",
"p X.X.X.X.X.X.X.( E d 2 2 3 2 3 2 2 3 2 2 d ! &.a.h.X.X.X.X.X.>.",
"p X.X.X.X.X.X.X.X.X.R R R R R R R R R R P ! #.5.f.h.X.X.X.X.X.>.",
"p X.X.X.X.X.X.X.X.X.@.%.+.+.+.+.+.+.+.%.+.&.<.r.d.h.X.X.X.X.X.>.",
"p X.X.X.X.X.V B M Y 6.a.a.0.0.0.0.0.0.0.0.9.3.r.f.h.X.X.X.X.X.>.",
"p X.X.X.X.X.m m N T 7.h.h.h.h.h.h.h.h.h.h.g.r.e.s.d.X.X.X.X.X.>.",
"p X.X.X.X.X.x n A / 8.h.h.h.h.h.h.h.h.h.h.g.t.q.w.w.3.:.X.X.X.>.",
"p X.X.X.X.X.z c A ^ *.p.y.i.i.i.i.i.i.u.3.,.$.o.o.-.:.:.X.X.X.>.",
"p X.X.X.X.X.z c A L ~ .. .} } } } } } | ' j U W W Q X.X.X.X.X.:.",
"p X.X.X.X.X.z v Z J S I _ ` [ ` [ [ ` ) 8 4 C J J J X.X.X.X.X.>.",
"p X.X.X.X.X.X.X.b b Z 5 r 8 t i i i 9 7 6 y F K J J X.X.X.X.X.>.",
"p X.X.X.X.X.X.X.l l l 5 * $ ; 0 > - $ $ ; e f H H L X.X.X.X.X.>.",
"p X.X.X.X.X.X.X.1 1 1 , : ; > > 0 > ; ; > q e p X.X.X.X.X.X.X.>.",
"p X.X.X.X.X.X.X.> 6 0 0 0 0 0 0 0 0 0 > 0 0 0 6 X.X.X.X.X.X.X.>.",
"p X.X.X.X.X.X.X.X.X.0 0 > 0 0 0 0 > 0 0 > > X.X.X.X.X.X.X.X.X.>.",
"k >.>.>.>.>.>.>.>.>.0 0 0 0 0 0 0 0 0 0 > > >.>.>.>.>.>.>.>.>.h."
};
