/* XPM */
static char *result[] = {
/* columns rows colors chars-per-pixel */
"32 32 134 2 ",
"   c black",
".  c #0F0C1E",
"X  c #110E1F",
"o  c #0F0E22",
"O  c #120F21",
"+  c #151123",
"@  c #181425",
"#  c #1F1825",
"$  c #17172C",
"%  c #1B192C",
"&  c #1D1E34",
"*  c #231C29",
"=  c #341A2B",
"-  c #392A2E",
";  c #202137",
":  c #23263D",
">  c #2A253A",
",  c #25283F",
"<  c #3C2E33",
"1  c #3F3034",
"2  c #3D323F",
"3  c #42293F",
"4  c #463434",
"5  c #493636",
"6  c #4E3A39",
"7  c #682334",
"8  c #172C49",
"9  c #0D355A",
"0  c #13375B",
"q  c #252B44",
"w  c #2C2C41",
"e  c #2C324B",
"r  c #393448",
"t  c #153F65",
"y  c #3E445D",
"u  c #19446C",
"i  c gray25",
"p  c #524047",
"a  c #40465E",
"s  c #524F5C",
"d  c #53515F",
"f  c #694F42",
"g  c #785048",
"h  c #57596B",
"j  c #545C72",
"k  c #766567",
"l  c #7E7D7D",
"z  c #812738",
"x  c #9D2634",
"c  c #81353F",
"v  c #AF2C39",
"b  c #A23739",
"n  c #AA393A",
"m  c #B3373B",
"M  c #D4383F",
"N  c #E5333E",
"B  c #D73F41",
"V  c #E63741",
"C  c #E63C45",
"Z  c #AF5345",
"A  c #B75847",
"S  c #B75D46",
"D  c #8B644B",
"F  c #9F634E",
"G  c #8F6952",
"H  c #B16B4F",
"J  c #BA6D4C",
"K  c #A46A55",
"L  c #BA7050",
"P  c #B97D5A",
"I  c #876061",
"U  c #EC6D71",
"Y  c #E37474",
"T  c #B3815C",
"R  c #BA8963",
"E  c #BA836E",
"W  c #BA9275",
"Q  c #C98C6E",
"!  c #C68D71",
"~  c #D28A79",
"^  c #F2B379",
"/  c #065F9B",
"(  c #2B6D9D",
")  c #0076BD",
"_  c #507291",
"`  c #7A7F90",
"'  c #0279C1",
"]  c #7C859A",
"[  c #3CB2F4",
"{  c #429DD4",
"}  c #5FABD7",
"|  c #A89C99",
" . c #B4B4B4",
".. c #BCB2B8",
"X. c #CAA487",
"o. c #CCA495",
"O. c #EFBF96",
"+. c #F0B590",
"@. c #C4B3A9",
"#. c #C7B5B1",
"$. c #EFC096",
"%. c #E8C6AA",
"&. c #E2C4B5",
"*. c #A4AFC1",
"=. c #B7BFCD",
"-. c #BCC6D6",
";. c #C1C1C1",
":. c #C7C7CB",
">. c #C8C7CB",
",. c #CAC8CC",
"<. c #C2CDDD",
"1. c #C9D5DF",
"2. c #D5D0D0",
"3. c #DAD5D5",
"4. c #D6D7DD",
"5. c #F7C9C0",
"6. c #F7D5D6",
"7. c #F2DDD9",
"8. c #EDE4DF",
"9. c #FBECDE",
"0. c #C2D0E3",
"q. c #CAD7E8",
"w. c #D2DBE9",
"e. c #C4E2F4",
"r. c #CDE7F5",
"t. c #C1E7FD",
"y. c #C1E8FD",
"u. c #E5E2E2",
"i. c #F3E6E2",
"p. c #FCEFE2",
"a. c #E7ECF2",
"s. c #EDF2F7",
"d. c #F3F2F3",
"f. c #FFFFFF",
/* pixels */
"  i i i i i i i r i i i i i i i   i i i r 5 -.-.y i i i i i i l ",
"i  . . . . . . . . . . . . . .;.i  . . . . .-.q. . . . . . . .;.",
"i  . . . . . . . . .q q w q q q q q q q q j *.w.d.f. . . . . .;.",
"i  . . . . . . . ...q q q q q q q w q q q a ] =.a.f. . . . . .;.",
"i  . . . . . . .q q q q q q q q q q q q q e y ` 3.f. . . . . .;.",
"i  . . . . . . .> q q q q q q q q q q q q q & h :.f. . . . . .;.",
"i  . . . . . . .% & q q q e q q q q q q q ; $ d :.f. . . . . .;.",
"i  . . . . . . .+ # & q q q q q q q q q q & @ s :.f. . . . . .;.",
"i  . . . . . . .@ @ % & q q q q q q q : % @ X s :.f. . . . . .;.",
"i  . . . . . . .@ @ @ % ; : : : q : : ; % + X s :.f. . . . . .;.",
"i  . . . . . . .@ @ @ @ % % % % % % % # # O X d :.f. . . . . .;.",
"i  . . . . . . .@ @ @ @ @ @ @ @ @ + @ @ @ @ X s >.f. . . . . .;.",
"i  . . . . . . .@ @ @ @ @ @ @ @ @ @ @ @ @ + O d :.f. . . . . .;.",
"i  . . . . . . .@ @ + @ @ @ @ @ @ @ @ @ @ O X s >.f. . . . . .;.",
"i  . . . . . . .+ + + + @ @ @ @ @ @ @ @ @ O . s :.f. . . . . .;.",
"l ;.;.;.;.;.;.;.6 < * @ + + + + + + + + + # - k 2.f.;.;.;.;.;.f.",
"  i i i i i y 2 R G < o + + + + + + + o o - D X.8.f.y 1 i i i l ",
"i  . . . . . . .^ R f 4 4 5 4 5 5 5 4 4 4 f W %.p.f. . . . . .;.",
"i  . . . . . . . . .T T T T T T T T T T P W @.3.d.f. . . . . .;.",
"i  . . . . . . . . .+.O.O.O.O.O.O.O.$.$.O.%.,.q.a.s. . . . . .;.",
"i  . . . . .C V N U 5.p.p.9.9.9.9.9.9.9.9.8.4.0.q.w.1.-. . . .;.",
"i  . . . . .M M B Y 6.f.f.f.f.f.f.f.f.f.f.d.,.......-.<. . . .;.",
"i  . . . . .v m A ~ 7.f.f.f.f.f.f.f.f.f.f.i.o.E E W  . . . . .;.",
"i  . . . . .x b A ! &.u.r.t.t.t.t.t.y.e.1.#.E J J J  . . . . .;.",
"i  . . . . .x b S P Q | } [ [ [ [ [ [ { _ k K J J J  . . . . .-.",
"i  . . . . .x b Z J A I ( ) ) ' ) { ) / 0 2 g F H L  . . . . .;.",
"i  . . . . . . .n n m 7 r 9 t u 9 t 9 8 8 > r p  . . . . . . .;.",
"i  . . . . . . .z z c 7 = % ; q 8 ; % * , q q q  . . . . . . .;.",
"i  . . . . . . .3 3 3 2 > : , , , , : : , q q q  . . . . . . .;.",
"i  . . . . . . .8 q , q q q q q q q q q q q , q  . . . . . . .;.",
"i  . . . . . . . . .q q q q q q q q , q , q  . . . . . . . . .;.",
"T ;.;.;.;.;.;.;.;.;.q , q q q , q q q q , : ;.;.;.;.;.;.;.;.;.f."
};
