/* XPM */
static char *result[] = {
/* columns rows colors chars-per-pixel */
"32 32 188 2 ",
"   c black",
".  c #0B030F",
"X  c #090007",
"o  c #11070D",
"O  c #150C0E",
"+  c #1A0F0E",
"@  c #1D120E",
"#  c #1B1107",
"$  c #1B1518",
"%  c #2B1D0D",
"&  c #291609",
"*  c #301D0C",
"=  c #211717",
"-  c #3B240B",
";  c #342C0A",
":  c #352D2F",
">  c #342D3C",
",  c #373337",
"<  c #43290B",
"1  c #4B2E0A",
"2  c #433B0B",
"3  c #5F3A08",
"4  c #553409",
"5  c #482F11",
"6  c #623C08",
"7  c #433C3F",
"8  c #4C460B",
"9  c #4F480B",
"0  c #584E0A",
"q  c #5C580A",
"w  c #764807",
"e  c #61590A",
"r  c #665F19",
"t  c #666104",
"y  c #666209",
"u  c #726D07",
"i  c #695F3C",
"p  c gray25",
"a  c #4C454B",
"s  c #4F4747",
"d  c #534D46",
"f  c #5B5557",
"g  c #665F49",
"h  c #676265",
"j  c #646169",
"k  c #706F78",
"l  c #7E7C7D",
"z  c #975E05",
"x  c #895506",
"c  c #9D6204",
"v  c #A76803",
"b  c #A57004",
"n  c #BF7701",
"m  c #C27901",
"M  c #CB7E01",
"N  c #969304",
"B  c #928A07",
"V  c #A49606",
"C  c #BEAD04",
"Z  c #BDBC04",
"A  c #B5B105",
"S  c #A49526",
"D  c #D58500",
"F  c #DA8600",
"G  c #DC8900",
"H  c #D58809",
"J  c #D28D1C",
"K  c #E28D00",
"L  c #EC9200",
"P  c #E49500",
"I  c #F29600",
"U  c #F69900",
"Y  c #FE9D00",
"T  c #FF9700",
"R  c #CAB714",
"E  c #E3AA01",
"W  c #FFA100",
"Q  c #FEAB00",
"!  c #FFA30C",
"~  c #EBBE01",
"^  c #FFB702",
"/  c #FFBA01",
"(  c #FBB808",
")  c #FFA416",
"_  c #FEA91B",
"`  c #FFB713",
"'  c #D49224",
"]  c #E49D27",
"[  c #FFAE2D",
"{  c #F8AA27",
"}  c #FFB528",
"|  c #EFBB3A",
" . c #FFB232",
".. c #FFBD3E",
"X. c #C6C504",
"o. c #C7CA04",
"O. c #CAC403",
"+. c #E5C402",
"@. c #FFC403",
"#. c #FFCB00",
"$. c #FEDD00",
"%. c #FAD701",
"&. c #FFD519",
"*. c #E3E102",
"=. c #FEE300",
"-. c #FFEE00",
";. c #FFE90E",
":. c #FFF300",
">. c #FFE817",
",. c #FFEA22",
"<. c #E2E13A",
"1. c #FFF337",
"2. c #9D8667",
"3. c #988B7D",
"4. c #DFAA52",
"5. c #FEB947",
"6. c #FFBC4C",
"7. c #FFB643",
"8. c #E0AF5E",
"9. c #FEBE54",
"0. c #FEBE58",
"q. c #DEAE60",
"w. c #E3B364",
"e. c #EABF79",
"r. c #FFC056",
"t. c #FEC05B",
"y. c #FFCB5F",
"u. c #FFED4C",
"i. c #FFFD4C",
"p. c #FFFE51",
"a. c #FFFF5C",
"s. c #FFC76A",
"d. c #FFC76B",
"f. c #FFD465",
"g. c #FFCA74",
"h. c #FFCE7B",
"j. c #FFD276",
"k. c #E7C36B",
"l. c #FFFB67",
"z. c #FFFB76",
"x. c #B09F89",
"c. c #B5B1AF",
"v. c #B4B4B4",
"b. c #BCB8B5",
"n. c #C2BDB8",
"m. c #E3C18C",
"M. c #FFCF83",
"N. c #F7CF8D",
"B. c #FFD183",
"V. c #FFD58C",
"C. c #F1CF96",
"Z. c #FDD696",
"A. c #FFE68D",
"S. c #FFFD83",
"D. c #FFE696",
"F. c #FFF799",
"G. c #CEC1A5",
"H. c #F6D7A4",
"J. c #FFDCA3",
"K. c #F6DAAB",
"L. c #FCDEAE",
"P. c #F7DDB4",
"I. c #E2E1AC",
"U. c #FFF3AA",
"Y. c #FEE2B4",
"T. c #FFEAB3",
"R. c #FFE6BB",
"E. c #FFE8B9",
"W. c #FFF5B1",
"Q. c #C1C1C1",
"!. c #C6C7CF",
"~. c #FFEBC9",
"^. c #FFE9C3",
"/. c #FFFFC3",
"(. c #FFFFCD",
"). c #F4E7D2",
"_. c #FFEFD8",
"`. c #FFF0DE",
"'. c #FFFFD7",
"]. c #E5E4E7",
"[. c #FFF4E3",
"{. c #FFF5EA",
"}. c #FFFDEC",
"|. c #FFFFE5",
" X c #FFF7F1",
".X c #FFFDF6",
"XX c #FFFEFD",
"oX c None",
/* pixels */
"  p p p p p p p p p p p o O o o o O o o , p p p p p p p p p p l ",
"p v.v.v.v.v.v.v.v.v.v.oX2 8 9 9 8 9 8 8 v.v.b.v.v.v.v.v.v.v.v.Q.",
"p v.v.v.v.v.v.v.b.O . % B X.X.X.X.X.X.N ; X o v.v.v.v.v.v.v.v.Q.",
"p v.v.v.v.v.v.v.; 8 8 e C -.:.-.-.:.-.R i a a 7 v.v.v.v.v.v.v.Q.",
"p v.v.v.v.v.v.@ u Z o.O.+./ / / ( / / | G.!.Q.l = v.v.v.v.v.v.Q.",
"p v.v.v.v.v.; 9 V =.:.-./ Y T Y Y Y [ M.}.XX~.x.f , v.v.v.v.v.Q.",
"p v.v.v.v.O y Z +./ / / Q T T T T [ Z.[.XXR.r.e.n.k $ v.v.v.v.Q.",
"p v.v.v.; 9 N %.#.W T Y Y W ^ ( } h.[.XX~.B.6.j.P.2.5 * v.v.v.Q.",
"p v.v.O e A +.( Q Y Y Y T Q #.,.A.`.XX~.0.d.T.Z.7.J c 4 + v.v.Q.",
"p v.v.O y *.=.Q T W Y W Q @.,.l.'.XX).N.6.d.T.g.W L m 3 + v.v.Q.",
"p v.v.O y *.$.W T W Y W @.>.S.'.XX).4.w.L.Z.6._ Y L n 3 + v.v.Q.",
"p v.v.O y *.=.Q Y W Q / >.a.(.XX`.C.8.w.P.B.! T Y L n 3 + v.v.Q.",
"p v.v.O y *.=.Q T W @.;.z.(.XX`.s.0.K.H.t.{ W Y Y L n 3 + v.v.Q.",
"p v.v.+ y *.$.W Y W &.p.W.XX`.J.t.t.K.N._ T W W Y L n 3 + v.v.Q.",
"p v.v.O y *.$.Q T Q f.(.XX{.g.9.J.H.8.] Y Y Y W Y P n 3 + v.v.Q.",
"l Q.Q.+ y *.$.Q ) 6.L.XX}.U.f.9.J.C.' F U W W Y Y L n 3 + Q.Q.XX",
"  p , + y *.=.Q 0.R..X}.S.p.F.L.d.{ H F U W Y W Y L n 3 + p p l ",
"p v.v.O t *.;...J.XX{.T.l.p.F.J. .L D F U W Y W Y L n 3 + v.v.Q.",
"p v.v.+ e *.i.T. XXXZ.6.V.W.j.} ! I D F U W W Y Y L n 3 + v.v.Q.",
"p v.v.+ r <.F..X{.R.s.r.D.U.5.Y W I D F U W Y W Y L n 3 + v.v.Q.",
"p v.v.@ g I.}.XXJ.6.M.T.z.1.@.T W I D F Y W W W Y L n 3 + v.v.Q.",
"p v.v.+ h ].XXR.h.6.V.Y.u.$.( L I L G K U W Y W W L m 3 + v.v.Q.",
"p v.v.+ h ].T.6.h.Y.M...` Q P D D G L U Y Y W W Y L m 3 + v.v.Q.",
"p v.v.O f v.m.6.B.Y.0.T Y Y K D D K Y W W W Y Y L D z 4 + v.v.Q.",
"p v.v.v.: s 3.P.V.5.) Y Y Y U I I I W W W W Y I D x 1 % v.v.v.Q.",
"p v.v.v.v.o j b.k./ / / Q W Y W W Y W Y U U I D c 3 + v.v.v.v.Q.",
"p v.v.v.v.v.> d S =.:.=./ W Y Y W W W U K K D z 1 % v.v.v.v.v.Q.",
"p v.v.v.v.v.v.# u Z o.O.E U U U U U U F v c c 6 @ v.v.v.v.v.v.Q.",
"p v.v.v.v.v.v.v.; 9 9 q b G G G G K G v 4 - < - v.v.v.v.v.v.v.Q.",
"p v.v.v.v.v.v.v.v.o . = w c v c c c v w % . + v.v.v.v.v.v.v.v.Q.",
"p v.v.v.v.v.v.v.v.v.v.v.- - - < < - < - v.v.v.v.v.v.v.v.v.v.v.Q.",
"l Q.Q.Q.Q.Q.Q.Q.Q.Q.Q.Q.O O O O O O o + Q.Q.Q.Q.Q.Q.Q.Q.Q.Q.Q.XX"
};
