/* XPM */
static char *result[] = {
/* columns rows colors chars-per-pixel */
"32 32 175 2 ",
"   c black",
".  c #0A010D",
"X  c #11070E",
"o  c #120B0E",
"O  c #1A0F0E",
"+  c #180B07",
"@  c #1B110E",
"#  c #1B1111",
"$  c #1B1118",
"%  c #2B1906",
"&  c #23160D",
"*  c #281A09",
"=  c #301D0D",
"-  c #2A230D",
";  c #3B230B",
":  c #332A0C",
">  c #37310C",
",  c #373003",
"<  c #362F3F",
"1  c #39353C",
"2  c #43290B",
"3  c #4D2E08",
"4  c #443C08",
"5  c #5C3601",
"6  c #5E3A08",
"7  c #563508",
"8  c #623C08",
"9  c #4A440C",
"0  c #4E480B",
"q  c #544D0A",
"w  c #59520A",
"e  c #544D11",
"r  c #684409",
"t  c #7B4B06",
"y  c #64451C",
"u  c #69620A",
"i  c #6C6808",
"p  c #757108",
"a  c #7E7904",
"s  c #4A4633",
"d  c #63513F",
"f  c gray25",
"g  c #565049",
"h  c #70655C",
"j  c #706254",
"k  c #6F6B73",
"l  c #7E7D7D",
"z  c #696466",
"x  c #965D05",
"c  c #895506",
"v  c #9E6203",
"b  c #A26503",
"n  c #AA6903",
"m  c #BF7701",
"M  c #AF7317",
"N  c #C27901",
"B  c #CA7F02",
"V  c #907247",
"C  c #908D07",
"Z  c #A49706",
"A  c #B6A205",
"S  c #BCB705",
"D  c #B0AE3F",
"F  c #D48300",
"G  c #DE8900",
"H  c #D98906",
"J  c #DF9000",
"K  c #E28B00",
"L  c #EB8F00",
"P  c #EC9300",
"I  c #F39500",
"U  c #F69900",
"Y  c #FF9D00",
"T  c #F49B0A",
"R  c #EB9C19",
"E  c #C6BB04",
"W  c #C2BF13",
"Q  c #EEA301",
"!  c #FFA301",
"~  c #F5A900",
"^  c #FFAD00",
"/  c #FFA40D",
"(  c #EFBD01",
")  c #FFB300",
"_  c #FFBB00",
"`  c #FFAA1C",
"'  c #FBA618",
"]  c #DF9C2D",
"[  c #CB953D",
"{  c #D99C39",
"}  c #FFAD24",
"|  c #FCAC2C",
" . c #FFB02C",
".. c #F7AE34",
"X. c #FFB232",
"o. c #FFB53B",
"O. c #C5C504",
"+. c #CBC503",
"@. c #C6C903",
"#. c #E9C401",
"$. c #FFC500",
"%. c #FFCC00",
"&. c #FED500",
"*. c #FFD900",
"=. c #E7C11A",
"-. c #EDE901",
";. c #FFE200",
":. c #F0EC01",
">. c #FFEC00",
",. c #FFF201",
"<. c #FFC928",
"1. c #FFE022",
"2. c #FFFD21",
"3. c #A49460",
"4. c #CA9642",
"5. c #DEAA52",
"6. c #E6A540",
"7. c #FEB945",
"8. c #FEBC4C",
"9. c #FEBE52",
"0. c #FBBE58",
"q. c #DEAE60",
"w. c #E5B463",
"e. c #FFC057",
"r. c #FFC25D",
"t. c #FFFE4B",
"y. c #FFC466",
"u. c #FFC76A",
"i. c #FFD469",
"p. c #FFCA73",
"a. c #FFCF7D",
"s. c #F2C479",
"d. c #FFD07F",
"f. c #FFFF68",
"g. c #B4B4B4",
"h. c #BDBBBC",
"j. c #E3BF82",
"k. c #CCBEAA",
"l. c #C7C981",
"z. c #F4CD8B",
"x. c #FFD185",
"c. c #FFD48B",
"v. c #FFD690",
"b. c #FFD897",
"n. c #F5D299",
"m. c #FFDA9C",
"M. c #FFE886",
"N. c #FFFD94",
"B. c #F5D6A2",
"V. c #FFDDA3",
"C. c #FDDEAB",
"Z. c #F6D8A6",
"A. c #E2CEB0",
"S. c #E4D2B5",
"D. c #F7DDB4",
"F. c #FFE1AE",
"G. c #FEE3B4",
"H. c #FDE5BC",
"J. c #FFFAB4",
"K. c #C1C1C1",
"L. c #E1DAD0",
"P. c #EBEDCE",
"I. c #FDE7C1",
"U. c #FFE9C4",
"Y. c #FFEBCC",
"T. c #F4E7D2",
"R. c #FFF1DC",
"E. c #FFFFD7",
"W. c #F6EFE3",
"Q. c #FFF4E4",
"!. c #FCF6EA",
"~. c #FFF9ED",
"^. c #FFFBF3",
"/. c #FFFEFD",
"(. c None",
/* pixels */
"  f f f f f f f f f f f f o X X X X X X X f f f f f f f f f f l ",
"f g.g.g.g.g.g.g.g.g.g.g.g.9 0 0 0 0 0 0 4 g.g.g.g.g.g.g.g.g.g.K.",
"f g.g.g.g.g.g.g.g.g.X . : C @.@.O.O.@.O.C = g.g.g.g.g.g.g.g.g.K.",
"f g.g.g.g.g.g.g.h.> 0 9 u E ,.,.>.>.,.>.A r = g.g.g.g.g.g.g.g.K.",
"f g.g.g.g.g.g.g.@ a O.@.+.( _ _ _ _ _ _ Q F t & g.g.g.g.g.g.g.K.",
"f g.g.g.g.g.g.> q A >.,.*.) Y Y Y Y Y Y ! U n 3 * g.g.g.g.g.g.K.",
"f g.g.g.g.g.@ i E #._ _ _ ! Y Y Y Y Y Y ! Y F v 5 + g.g.g.g.g.K.",
"f g.g.g.g.> q Z ;.$.Y Y Y Y ! ) ^ ! ! Y Y ! ' { V g 1 g.g.g.g.K.",
"f g.g.g.# u S #._ ^ Y Y Y Y ^ *.*.) Y ! Y U 9.D.L.h.z # g.g.g.K.",
"f g.g.g.@ p :.;.! U Y Y ! ^ $.*.&.~ I Y / o.m./.^.S.j # g.g.g.K.",
"f g.g.g.@ p -.*.! Y ! Y ! &.;.$.~ G K Y 7.F.~./.B.[ y O g.g.g.K.",
"f g.g.g.O p -.*.! Y Y ^ $.*.*.) I F H ..v.^.^.H.s.[ y O g.g.g.K.",
"f g.g.g.$ i -.*.! Y ! %.;.%.) ! P F { Z.~./.F.8.x.A.h # g.g.g.K.",
"f g.g.g.$ i -.*.! Y ^ %.;.%.^ ! T ] j.!.^.I.a.7.x.S.h # g.g.g.K.",
"f g.g.g.$ p -.*.! Y Y ^ _ *.*.) | n.W./.G.9.p.G.z.[ y # g.g.g.K.",
"3.h.K.K.# p -.*.! Y Y Y ^ ;.,.<.p.Q./.Y.x.8.a.G.w.m 5 O K.K.K./.",
"  f f f @ p -.*.! Y Y Y ^ ;.2.M.R./.U.0.u.G.v.7.R m 6 O 1 f f 3.",
"f g.g.g.@ p -.*.! Y Y Y ^ 1.f.E./.T.z.8.p.G.p.! L m 6 O g.g.g.K.",
"f g.g.g.@ p -.*.! Y Y Y ` M.E./.T.q.q.D.b.8.` Y P m 6 O g.g.g.K.",
"f g.g.g.@ p -.*.! Y Y ` 0.Y./.R.n.5.w.D.x./ Y ! P m 6 O g.g.g.K.",
"f g.g.g.@ p -.*.! Y / p.Y./.Q.u.0.Z.B.0.} Y Y U P m 6 O g.g.g.K.",
"f g.g.g.@ p -.*.! ` 9.I./.R.V.e.y.G.c.` Y Y Y ! P m 6 $ g.g.g.K.",
"f g.g.g.@ p :.*./ 0.U./.!.p.8.m.V.r.} ! Y Y ! Y P N 6 $ g.g.g.K.",
"f g.g.g.@ u S =.e.D./.Q.F.r.e.F.b.} Y Y Y ! Y I B v 2 X g.g.g.K.",
"f g.g.g.g., e 3.H.^.^.z.e.v.F.u. ./ Y Y U ! U F c 2 = g.g.g.g.K.",
"f g.g.g.g.g.$ k K.P.J.i.e.m.m.X.Y Y ! ! ! U F v 6 # g.g.g.g.g.K.",
"f g.g.g.g.g.g.< g D t.N.F.i.../ Y Y ! Y U G x 3 = g.g.g.g.g.g.K.",
"f g.g.g.g.g.g.g.@ p W s.k.6.U U U U U U H b 8 # g.g.g.g.g.g.g.K.",
"f g.g.g.g.g.g.g.g.4 0 s d M G K G G G G b 7 = g.g.g.g.g.g.g.g.K.",
"f g.g.g.g.g.g.g.g.g.X . % t v v v v v v r & g.g.g.g.g.g.g.g.g.K.",
"f g.g.g.g.g.g.g.g.g.g.(.(.; ; 2 2 2 2 2 ; g.g.g.g.g.g.g.g.g.g.K.",
"l K.K.K.K.K.K.K.K.K.K.K.K.o o o o o o o o K.K.K.K.K.K.K.K.K.K./."
};
