/* XPM */
static char *result[] = {
/* columns rows colors chars-per-pixel */
"32 32 149 2 ",
"   c black",
".  c #110706",
"X  c #11070D",
"o  c #12090B",
"O  c #1F120D",
"+  c #040010",
"@  c #1F1310",
"#  c #22140D",
"$  c #271E0D",
"%  c #321C0D",
"&  c #201616",
"*  c #211718",
"=  c #201818",
"-  c #2B220D",
";  c #30270D",
":  c #332A0C",
">  c #3C3602",
",  c #3D360C",
"<  c #2A2121",
"1  c #332A31",
"2  c #3A3337",
"3  c #4D2F0A",
"4  c #463F0B",
"5  c #563C0A",
"6  c #5E3A08",
"7  c #442D13",
"8  c #46311C",
"9  c #4B3E35",
"0  c #48410B",
"q  c #4F480B",
"w  c #6A4207",
"e  c #754907",
"r  c #62580A",
"t  c #695F09",
"y  c #714E1D",
"u  c #7F7C08",
"i  c #705126",
"p  c #696025",
"a  c #404040",
"s  c #4B4242",
"d  c #4F494B",
"f  c #5A5352",
"g  c #615957",
"h  c #7D6E5E",
"j  c #7F7267",
"k  c #747178",
"l  c #7E7D7D",
"z  c #925B05",
"x  c #A46704",
"c  c #A57222",
"v  c #C77B01",
"b  c #878605",
"n  c #898707",
"m  c #939207",
"M  c #B79F04",
"N  c #A3A406",
"B  c #BBAD04",
"V  c #CD8100",
"C  c #D08201",
"Z  c #DB8500",
"A  c #D8890B",
"S  c #D39400",
"D  c #D59900",
"F  c #DE9901",
"G  c #E18900",
"H  c #EE9400",
"J  c #E39D00",
"K  c #F29600",
"L  c #F79A00",
"P  c #FF9C00",
"I  c #C8BA03",
"U  c #DFB400",
"Y  c #FFA200",
"T  c #FFAB00",
"R  c #FFA60F",
"E  c #FFB300",
"W  c #F1BF01",
"Q  c #FFBA00",
"!  c #F4A21B",
"~  c #D7972D",
"^  c #D29737",
"/  c #DB9D38",
"(  c #FFAA21",
")  c #F2A62C",
"_  c #FFAE28",
"`  c #F1BE27",
"'  c #F7AD34",
"]  c #FFB53B",
"[  c #C6C504",
"{  c #CBC303",
"}  c #CEC20B",
"|  c #E7C700",
" . c #EEC101",
".. c #FFC500",
"X. c #F6CC00",
"o. c #FFCA00",
"O. c #F6D200",
"+. c #FFD400",
"@. c #F1DE00",
"#. c #FFDD00",
"$. c #F1E100",
"%. c #FFE100",
"&. c #F5EB00",
"*. c #FFEB00",
"=. c #FCF100",
"-. c #FEFE00",
";. c #D29C42",
":. c #FFBA44",
">. c #FFBD4D",
",. c #FFBD50",
"<. c #E8B764",
"1. c #EFBF71",
"2. c #FFC259",
"3. c #FFCA6A",
"4. c #EBC07B",
"5. c #FFCD75",
"6. c #858388",
"7. c #8A8990",
"8. c #949196",
"9. c #BAA78C",
"0. c #B0A290",
"q. c #BDAD98",
"w. c #BFB5A9",
"e. c #B4B4B4",
"r. c #C8B686",
"t. c #E5BF82",
"y. c #C3BEB8",
"u. c #F5CA82",
"i. c #FFD389",
"p. c #FDD591",
"a. c #F2D099",
"s. c #E9D2AC",
"d. c #F7D8A4",
"f. c #F3DAAF",
"g. c #EDD6B2",
"h. c #E8D7BA",
"j. c #FFE4B5",
"k. c #C1C1C1",
"l. c #C7C7CB",
"z. c #FFE9C4",
"x. c #FFEBCA",
"c. c #F9EBD4",
"v. c #FFF4DA",
"b. c #F7EFE3",
"n. c #FDF6E8",
"m. c #F6F3F0",
"M. c #FFFDF4",
"N. c #F6F6F8",
"B. c #FFFFFE",
/* pixels */
"  a a a a a a a a a a a X X X X X X X X a a a a a a a a a a a l ",
"a e.e.e.e.e.e.e.e.e.e.e.0 q q q q q q 4 e.e.e.e.e.e.e.e.e.e.e.k.",
"a e.e.e.e.e.e.e.e.e.e.: m [ [ [ [ [ [ n - e.e.e.e.e.e.e.e.e.e.k.",
"a e.e.e.e.e.e.e.e.e.4 t I *.=.*.*.=.*.M 5 % e.e.e.e.e.e.e.e.e.k.",
"a e.e.e.e.e.e.e.e.; n { W Q Q Q Q Q Q F x w # e.e.e.e.e.e.e.e.k.",
"a e.e.e.e.e.e.e.+ - N =...P P P P Y P K C e # e.e.e.e.e.e.e.e.k.",
"a e.e.e.e.e.e.e.+ - N =...P P P P P P K V e O e.e.e.e.e.e.e.e.k.",
"a e.e.e.e.e.e.e., r B #.Q P T Q Q E Y K Z z 3 % e.e.e.e.e.e.e.k.",
"a e.e.e.e.e.e.$ u {  .E P T +.*.*.+.T P L V x 6 @ e.e.e.e.e.e.k.",
"a e.e.e.e.e.e.$ m =.o.P P E *.-.&.X.T Y Y H v w O e.e.e.e.e.e.k.",
"a e.e.e.e.e.e.$ m =.o.P P E *.&.U J L Y Y H V w O e.e.e.e.e.e.k.",
"a e.e.e.e.e.e.$ m =.o.Y T o.*.@.S Z L Y P H v w O e.e.e.e.e.e.k.",
"a e.e.e.e.e.e.$ m =.o.T o.=.-.@.S Z L Y P H v w O e.e.e.e.e.e.k.",
"a e.e.e.e.e.e.$ m =...T +.=.-.@.S Z L Y Y H v w O e.e.e.e.e.e.k.",
"a e.e.e.e.e.e.$ m =.o.Y T ..=.@.D Z L Y P H v w O e.e.e.e.e.e.k.",
"l k.k.k.k.k.k.$ m &.o.Y P T *.@.D Z L Y P H v w O k.k.k.k.k.k.B.",
"  a a a a a a $ m =.o.P P E *.$.D Z L Y P H v w O a a a a a a l ",
"a e.e.e.e.e.e.$ m =.o.P P E *.$.D Z L P P ! ^ i O e.e.e.e.e.e.k.",
"a e.e.e.e.e.e.$ m &.o.P P T *.@.D Z L P Y 2.s.j @ e.e.e.e.e.e.k.",
"a e.e.e.e.e.e.$ m =.o.P P E *.$.D Z L R ] d.m.6.= e.e.e.e.e.e.k.",
"a e.e.e.e.e.e.$ m &.o.Y P Q *.$.D Z L :.j.M.N.6.= e.e.e.e.e.e.k.",
"a e.e.e.e.e.e.$ m =.o.Y P T O.| S A ' p.M.M.h.h & e.e.e.e.e.e.k.",
"a e.e.e.e.e.e.$ m =.o.P P L J S V / d.n.B.f.;.y @ e.e.e.e.e.e.k.",
"a e.e.e.e.e.e.- m =.o.P P K G A ~ t.n.M.z.u.;.y @ e.e.e.e.e.e.k.",
"a e.e.e.e.e.e.$ m -.o.P P L K ) a.b.B.j.,.5.g.j & e.e.e.e.e.e.k.",
"a e.e.e.e.e.e.$ u I  .Q Y P _ 5.v.B.x.i.>.4.y.k = e.e.e.e.e.e.k.",
"a e.e.e.e.e.e.e., r B %.Q ( p.v.B.z.2.3.j.0.f 2 e.e.e.e.e.e.e.k.",
"a e.e.e.e.e.e.e.e.- b } ` 3.v.B.c.p.>.1.y.l * e.e.e.e.e.e.e.e.k.",
"a e.e.e.e.e.e.e.e.e.> p r.v.B.c.<.1.j.q.g 2 e.e.e.e.e.e.e.e.e.k.",
"a e.e.e.e.e.e.e.e.e.e.1 8.l.l.9.c c w.7.< e.e.e.e.e.e.e.e.e.e.k.",
"a e.e.e.e.e.e.e.e.e.e.e.s d d 9 7 8 s s e.e.e.e.e.e.e.e.e.e.e.k.",
"l k.k.k.k.k.k.k.k.k.k.k.. . . o o o X X k.k.k.k.k.k.k.k.k.k.k.B."
};
