/* XPM */
static char *result[] = {
/* columns rows colors chars-per-pixel */
"32 32 144 2 ",
"   c black",
".  c #110707",
"X  c #11070B",
"o  c #120B0E",
"O  c #0A0510",
"+  c #23160D",
"@  c #20180E",
"#  c #2A1A0D",
"$  c #331B02",
"%  c #341F0C",
"&  c #211713",
"*  c #241B1B",
"=  c #3B250B",
"-  c #3B360D",
";  c #2A2121",
":  c #342D33",
">  c #3B3336",
",  c #42280B",
"<  c #52330A",
"1  c #583609",
"2  c #663F08",
"3  c #463D3D",
"4  c #5A510A",
"5  c #4F4717",
"6  c #6E4306",
"7  c #674008",
"8  c #764907",
"9  c #784A06",
"0  c #737008",
"q  c #7C7B08",
"w  c #5E4527",
"e  c #4F483D",
"r  c gray25",
"t  c #4B4448",
"y  c #4F484C",
"u  c #5B5253",
"i  c #615A5A",
"p  c #747179",
"a  c #7E7C7C",
"s  c #825106",
"d  c #9E6204",
"f  c #847F1F",
"g  c #A36503",
"h  c #A76803",
"j  c #AA6A03",
"k  c #AD6F0C",
"l  c #848207",
"z  c #B0A305",
"x  c #848228",
"c  c #CD8000",
"v  c #D48300",
"b  c #D88400",
"n  c #DD8A00",
"m  c #D49700",
"M  c #D69C00",
"N  c #D89F00",
"B  c #E28C00",
"V  c #E39E00",
"C  c #F29600",
"Z  c #FF9700",
"A  c #F59900",
"S  c #FE9D00",
"D  c #D8A100",
"F  c #C5BC04",
"G  c #E6AE01",
"H  c #FFA100",
"J  c #FFAC00",
"K  c #FFA209",
"L  c #E1B900",
"P  c #FFB700",
"I  c #E49C29",
"U  c #FFAD28",
"Y  c #FFBE3D",
"T  c #EAC801",
"R  c #FFC200",
"E  c #FFC900",
"W  c #F6D000",
"Q  c #FFD300",
"!  c #FFD313",
"~  c #FFD01D",
"^  c #F4E600",
"/  c #FFE500",
"(  c #F5EC01",
")  c #FFED00",
"_  c #FFEA0F",
"`  c #F7F000",
"'  c #F8F200",
"]  c #FEFC00",
"[  c #FFF20C",
"{  c #C6C42E",
"}  c #FFC137",
"|  c #FFCB31",
" . c #F4ED3A",
".. c #FFFD32",
"X. c #FFFA3E",
"o. c #858267",
"O. c #84826B",
"+. c #FFBB4C",
"@. c #FFBE57",
"#. c #EABE7A",
"$. c #FFC64C",
"%. c #FFC453",
"&. c #FFC25F",
"*. c #FFCD5D",
"=. c #F6F442",
"-. c #FFFF5E",
";. c #FFC267",
":. c #FFCA6B",
">. c #FFC679",
",. c #FFCF79",
"<. c #FFDF79",
"1. c #FFFF63",
"2. c #FFFB70",
"3. c #898484",
"4. c #939195",
"5. c #94929D",
"6. c #AE9F8E",
"7. c #B4B4B4",
"8. c #BCBBBE",
"9. c #C4AB8C",
"0. c #C4BDBA",
"q. c #C5C49E",
"w. c #FFDE84",
"e. c #FFD38F",
"r. c #FFD88A",
"t. c #FFD496",
"y. c #FFFE8D",
"u. c #FFEA9F",
"i. c #C7C6A0",
"p. c #FFDBA7",
"a. c #FEDEAC",
"s. c #FFECA9",
"d. c #FFF2A4",
"f. c #FFF6AC",
"g. c #FFE5B2",
"h. c #F4EEB2",
"j. c #FFECB1",
"k. c #F8F4B2",
"l. c #C1C1C1",
"z. c #C8C7D0",
"x. c #FFFAE4",
"c. c #FDF7EE",
"v. c #EEF1F8",
"b. c #FFFFFE",
/* pixels */
"  r r r r r r r 3 r r r . . . . X o . . r r r r r r r r r r r a ",
"r 7.7.7.7.7.7.7.7.7.7.7.3 t y e 5 5 t t 7.7.7.7.7.7.7.7.7.7.7.l.",
"r 7.7.7.7.7.7.7.7.7.7.; 3.l.z.i.{ { q.5.: 7.7.7.7.7.7.7.7.7.7.l.",
"r 7.7.7.7.7.7.7.7.7.> i 8.b.x.d.-.1.f.9.w $ 7.7.7.7.7.7.7.7.7.l.",
"r 7.7.7.7.7.7.7.7.; a l.v.x.,.%.d.f.*.I k 6 # 7.7.7.7.7.7.7.7.l.",
"r 7.7.7.7.7.7.7.7.* 4.b.x.g.&.@.p.t.U C b s # O 7.7.7.7.7.7.7.l.",
"r 7.7.7.7.7.7.7.7.* 4.c.r.+.t.a.;.U K C v s + O 7.7.7.7.7.7.7.l.",
"r 7.7.7.7.7.7.7.> u 6.a.:.%.u.d.| J H A n d < % 7.7.7.7.7.7.7.l.",
"r 7.7.7.7.7.7.* p 0.#.+.e.j.2...[ Q J S C b h 7 + 7.7.7.7.7.7.l.",
"r 7.7.7.7.7.7.& o.k.<.+.t.s.X.] ( W J H H C v 9 + 7.7.7.7.7.7.l.",
"r 7.7.7.7.7.7.& f =.y.g.>.} _ ( L G A H S C c 8 + 7.7.7.7.7.7.l.",
"r 7.7.7.7.7.7.& f =.y.g.$.P ) ^ M c C H H C c 8 + 7.7.7.7.7.7.l.",
"r 7.7.7.7.7.7.& o.h.w.Y ! ) ] ^ M b C S S C c 8 + 7.7.7.7.7.7.l.",
"r 7.7.7.7.7.7.& O.h.*.J E ) ] ^ N b C S S C c 8 + 7.7.7.7.7.7.l.",
"r 7.7.7.7.7.7.& x  .~ H J R ) ^ D b C H S C c 8 + 7.7.7.7.7.7.l.",
"a l.l.l.l.l.l.@ l ( Q S Z J / ^ D b A H S C c 8 + l.l.l.l.l.l.b.",
"  r r r r r 3 @ l ( Q H Z J / ^ D b C H S C c 8 @ r 3 r r r r a ",
"r 7.7.7.7.7.7.@ l ( Q H S J / ( D b C H H C c 8 @ 7.7.7.7.7.7.l.",
"r 7.7.7.7.7.7.@ l ( Q H Z J / ^ D b C H S C c 8 + 7.7.7.7.7.7.l.",
"r 7.7.7.7.7.7.@ l ( Q S S J / ( D b C H S C c 8 + 7.7.7.7.7.7.l.",
"r 7.7.7.7.7.7.@ l ( Q H Z J / ( D b C H H C c 8 @ 7.7.7.7.7.7.l.",
"r 7.7.7.7.7.7.@ l ( Q H A J W T m b A H H C c 8 @ 7.7.7.7.7.7.l.",
"r 7.7.7.7.7.7.@ l ( Q H S S V m c n C H H C c 8 + 7.7.7.7.7.7.l.",
"r 7.7.7.7.7.7.@ l ` Q H S S B b b B A H H C c 8 + 7.7.7.7.7.7.l.",
"r 7.7.7.7.7.7.@ l ' Q S S S A C C A S H H C v 9 + 7.7.7.7.7.7.l.",
"r 7.7.7.7.7.7.@ 0 F T P J S S H H H S H A b g 2 + 7.7.7.7.7.7.l.",
"r 7.7.7.7.7.7.7.- 4 z / R H S S S H H A B g < % 7.7.7.7.7.7.7.l.",
"r 7.7.7.7.7.7.7.7.@ q F G C A A A A A n j 7 + 7.7.7.7.7.7.7.7.l.",
"3 7.7.7.7.7.7.7.7.7.- 4 h n B n n B n j 1 % 7.7.7.7.7.7.7.7.7.l.",
"r 7.7.7.7.7.7.7.7.7.7.+ 6 d g d d d d 9 # 7.7.7.7.7.7.7.7.7.7.l.",
"r 7.7.7.7.7.7.7.7.7.7.7.= = , , , , , = 7.7.7.7.7.7.7.7.7.7.7.l.",
"a l.l.l.l.l.l.l.l.l.l.l.o o o o o o o o l.l.l.l.l.l.l.l.l.l.l.b."
};
