/* XPM */
static char *result[] = {
/* columns rows colors chars-per-pixel */
"32 32 166 2 ",
"   c black",
".  c #0A000F",
"X  c #0B000F",
"o  c #0D030F",
"O  c #0B060F",
"+  c #0E040F",
"@  c #0E070F",
"#  c #0F070F",
"$  c #0F090F",
"%  c #0F0A0F",
"&  c #11060E",
"*  c #11070E",
"=  c #120A0E",
"-  c #130A0E",
";  c #120B0E",
":  c #040010",
">  c #060010",
",  c #080010",
"<  c #090010",
"1  c #0A0010",
"2  c #080310",
"3  c #0B0710",
"4  c #0D0710",
"5  c #0E0810",
"6  c #311D0C",
"7  c #311E0C",
"8  c #321F0C",
"9  c #331F0C",
"0  c #361F0C",
"q  c #34200C",
"w  c #37200C",
"e  c #37220C",
"r  c #30270D",
"t  c #38210B",
"y  c #39220B",
"u  c #39230B",
"i  c #3A230B",
"p  c #3B240B",
"a  c #3D260B",
"s  c #3F270B",
"d  c #38210C",
"f  c #38220C",
"g  c #362E0C",
"h  c #372F0C",
"j  c #3D2A0B",
"k  c #38300C",
"l  c #3A320C",
"z  c #42280B",
"x  c #43290B",
"c  c #43370B",
"v  c #443B0B",
"b  c #40390C",
"n  c #403D0C",
"m  c #5E3A09",
"M  c #613B09",
"N  c #49410B",
"B  c #4B440B",
"V  c #4F480B",
"C  c #50490B",
"Z  c #784A06",
"A  c #794B06",
"S  c #7A4B06",
"D  c #685409",
"F  c #6A6009",
"G  c gray25",
"H  c #7E7D7D",
"J  c #825006",
"K  c #905905",
"L  c #915A05",
"P  c #925B05",
"I  c #985A04",
"U  c #985B04",
"Y  c #995F04",
"T  c #9A5F04",
"R  c #9B6005",
"E  c #9C6104",
"W  c #9E6204",
"Q  c #A06303",
"!  c #A26503",
"~  c #A76803",
"^  c #AB6A03",
"/  c #AC6B05",
"(  c #B16C03",
")  c #B26F03",
"_  c #B36F05",
"`  c #B46F05",
"'  c #A67704",
"]  c #BE7E03",
"[  c #C27901",
"{  c #CD7F00",
"}  c #CE7F00",
"|  c #8A8807",
" . c #8C8A07",
".. c #969106",
"X. c #A19E06",
"o. c #A3A206",
"O. c #A5A405",
"+. c #A6A505",
"@. c #A4A406",
"#. c #A5A406",
"$. c #BBAA04",
"%. c #B2B305",
"&. c #B3B305",
"*. c #B5B205",
"=. c #B5B405",
"-. c #CD8000",
";. c #CE8000",
":. c #CF8100",
">. c #D08000",
",. c #D08100",
"<. c #D08200",
"1. c #D28300",
"2. c #D38300",
"3. c #D48300",
"4. c #D58300",
"5. c #D68400",
"6. c #D88500",
"7. c #D98600",
"8. c #D88700",
"9. c #DA8800",
"0. c #DB8900",
"q. c #DC8900",
"w. c #DF8B00",
"e. c #D59D01",
"r. c #E08B01",
"t. c #E38B00",
"y. c #E18C00",
"u. c #E28D00",
"i. c #EA9000",
"p. c #EE9400",
"a. c #F39700",
"s. c #F59700",
"d. c #F59800",
"f. c #F69800",
"g. c #F89800",
"h. c #FD9B00",
"j. c #FC9D00",
"k. c #C7B703",
"l. c #CABC03",
"z. c #E0A400",
"x. c #E0A500",
"c. c #E9A500",
"v. c #FAA100",
"b. c #EBB400",
"n. c #FEB100",
"m. c #F0BF01",
"M. c #FEBF00",
"N. c #CFC303",
"B. c #C8C603",
"V. c #CBCA03",
"C. c #EFC200",
"Z. c #FFC300",
"A. c #FFC400",
"S. c #FCD800",
"D. c #FAEB00",
"F. c #FAEC00",
"G. c #FFF100",
"H. c #FEF200",
"J. c #FFF300",
"K. c #FFF400",
"L. c #FFF500",
"P. c #FFF700",
"I. c yellow",
"U. c #B4B4B4",
"Y. c #C1C1C1",
"T. c white",
/* pixels */
"  G G G G G G G G G G G G G * * * & G G G G G G G G G G G G G H ",
"G U.U.U.U.U.U.U.U.U.U.U.U.U.N V C B U.U.U.U.U.U.U.U.U.U.U.U.U.Y.",
"G U.U.U.U.U.U.U.U.U.U.U.U.k ..B.V.X.v o U.U.U.U.U.U.U.U.U.U.U.Y.",
"G U.U.U.U.U.U.U.U.U.U.U.X l *.I.P.$.c + U.U.U.U.U.U.U.U.U.U.U.Y.",
"G U.U.U.U.U.U.U.U.U.U.U.X l =.L.C.' j # U.U.U.U.U.U.U.U.U.U.U.Y.",
"G U.U.U.U.U.U.U.U.U.U.U., h &.D.z.I t 4 U.U.U.U.U.U.U.U.U.U.U.Y.",
"G U.U.U.U.U.U.U.U.U.U.U.> g %.F.x.U w 3 U.U.U.U.U.U.U.U.U.U.U.Y.",
"G U.U.U.U.U.U.U.U.U.U.U.b F k.S.c.( M t U.U.U.U.U.U.U.U.U.U.U.Y.",
"G U.U.U.U.U.U.U.U.U.U.r | N.m.n.v.r.) Z 6 U.U.U.U.U.U.U.U.U.U.Y.",
"G U.U.U.U.U.U.U.U.U.. r O.L.Z.h.g.p.9.L 8 @ U.U.U.U.U.U.U.U.U.Y.",
"G U.U.U.U.U.U.U.U.U.1 r @.K.A.g.t.8.2.L 8 @ U.U.U.U.U.U.U.U.U.Y.",
"G U.U.U.U.U.U.U.U.U.< r o.G.A.s.6.{ ;.K 8 5 U.U.U.U.U.U.U.U.U.Y.",
"G U.U.U.U.U.U.U.U.U.< r o.G.A.s.6.-.;.K 8 5 U.U.U.U.U.U.U.U.U.Y.",
"G U.U.U.U.U.U.U.U.U.< r o.G.A.s.7.;.;.K 8 5 U.U.U.U.U.U.U.U.U.Y.",
"G U.U.U.U.U.U.U.U.U.< r o.G.A.s.7.;.;.K 8 5 U.U.U.U.U.U.U.U.U.Y.",
"H Y.Y.Y.Y.Y.Y.Y.Y.Y.< r o.G.A.s.7.;.;.K 8 5 Y.Y.Y.Y.Y.Y.Y.Y.Y.T.",
"  G G G G G G G G G < r o.G.A.s.7.;.;.K 8 5 G G G G G G G G G H ",
"G U.U.U.U.U.U.U.U.U.< r o.G.A.s.7.;.;.K 8 5 U.U.U.U.U.U.U.U.U.Y.",
"G U.U.U.U.U.U.U.U.U.< r o.G.A.s.7.;.;.K 8 5 U.U.U.U.U.U.U.U.U.Y.",
"G U.U.U.U.U.U.U.U.U.< r o.G.A.d.7.;.;.K 8 5 U.U.U.U.U.U.U.U.U.Y.",
"G U.U.U.U.U.U.U.U.U.< r o.G.A.f.7.;.;.K 8 5 U.U.U.U.U.U.U.U.U.Y.",
"G U.U.U.U.U.U.U.U.U.1 r #.J.M.i.4.:.<.L 9 @ U.U.U.U.U.U.U.U.U.Y.",
"G U.U.U.U.U.U.U.U.U.. r +.H.b.3.} ,.1.P 9 @ U.U.U.U.U.U.U.U.U.Y.",
"G U.U.U.U.U.U.U.U.U.U.r  .l.e.5.>.[ ^ S 7 U.U.U.U.U.U.U.U.U.U.Y.",
"G U.U.U.U.U.U.U.U.U.U.U.n D ] p.q.~ m u U.U.U.U.U.U.U.U.U.U.U.Y.",
"G U.U.U.U.U.U.U.U.U.U.U.: 0 _ j.u.Y e 3 U.U.U.U.U.U.U.U.U.U.U.Y.",
"G U.U.U.U.U.U.U.U.U.U.U.2 d ` j.u.T y 4 U.U.U.U.U.U.U.U.U.U.U.Y.",
"G U.U.U.U.U.U.U.U.U.U.U.O f / a.y.E p % U.U.U.U.U.U.U.U.U.U.U.Y.",
"G U.U.U.U.U.U.U.U.U.U.U.@ q R w.0.W p % U.U.U.U.U.U.U.U.U.U.U.Y.",
"G U.U.U.U.U.U.U.U.U.U.U.U.7 A Q ! J i $ U.U.U.U.U.U.U.U.U.U.U.Y.",
"G U.U.U.U.U.U.U.U.U.U.U.U.U.a z x s U.U.U.U.U.U.U.U.U.U.U.U.U.Y.",
"H Y.Y.Y.Y.Y.Y.Y.Y.Y.Y.Y.Y.Y.- ; ; = Y.Y.Y.Y.Y.Y.Y.Y.Y.Y.Y.Y.Y.T."
};
